<svg width="165" height="54" viewBox="0 0 165 54" fill="none" xmlns="http://www.w3.org/2000/svg">
<path d="M131.733 40.9612C131.845 40.9612 131.919 40.9985 131.994 41.0732C132.069 41.1479 132.106 41.2225 132.106 41.3345C132.106 41.4466 132.069 41.5212 131.994 41.5959C131.882 41.7079 131.77 41.82 131.583 42.0067C131.434 42.156 131.098 42.4174 130.687 42.7534C130.239 43.0895 129.828 43.4255 129.38 43.6869C128.932 43.9483 128.447 44.2097 127.887 44.3964C127.327 44.6204 126.767 44.7324 126.281 44.7324C125.908 44.7324 125.572 44.6577 125.198 44.5457C124.414 44.247 123.817 43.5749 123.406 42.5294C123.033 41.4839 122.883 40.177 122.995 38.5714C122.995 38.4968 122.958 38.4594 122.921 38.3848C122.883 38.3474 122.809 38.3101 122.734 38.3474C122.36 38.3847 121.987 38.3847 121.576 38.4221C121.203 38.4594 120.83 38.4968 120.568 38.4968C120.269 38.5341 120.008 38.5341 119.784 38.5341C119.56 38.5341 119.373 38.5714 119.261 38.5714C119.149 38.5714 119.075 38.5714 119.075 38.5714H119.037C118.925 38.5714 118.851 38.5341 118.776 38.4968C118.701 38.4221 118.664 38.3474 118.664 38.2354C118.664 38.1234 118.701 38.0487 118.739 37.974C118.813 37.8993 118.888 37.862 118.963 37.862C118.963 37.862 119.037 37.862 119.187 37.862C119.336 37.862 119.523 37.8247 119.747 37.8247C120.008 37.8247 120.269 37.7873 120.568 37.75C120.867 37.7126 121.203 37.7126 121.614 37.6753C122.024 37.638 122.435 37.6006 122.809 37.6006C122.958 37.6006 123.07 37.4513 123.107 37.2272C123.182 36.6671 123.294 36.1444 123.406 35.6216C123.518 35.0989 123.667 34.5761 123.854 34.1281C124.041 33.6427 124.227 33.2693 124.451 32.9332C124.676 32.6345 124.9 32.4478 125.124 32.4105C125.497 32.3358 125.758 32.5225 125.982 32.9332C126.132 33.1946 126.094 33.7173 125.945 34.5015C125.796 35.2856 125.534 36.1817 125.161 37.1899C125.124 37.2646 125.124 37.3019 125.124 37.3393C125.124 37.3766 125.161 37.4139 125.161 37.4139C125.161 37.4139 125.198 37.4513 125.236 37.4513C127.289 37.3393 128.746 37.2646 129.642 37.2646C129.754 37.2646 129.828 37.3019 129.903 37.3766C129.978 37.4513 130.015 37.5259 130.015 37.638C130.015 37.75 129.978 37.8247 129.903 37.8993C129.828 37.974 129.754 38.0114 129.642 38.0114C128.26 38.0114 126.692 38.086 125.012 38.1981C124.937 38.1981 124.862 38.1981 124.862 38.2354C124.825 38.2354 124.788 38.3101 124.788 38.3474C124.564 38.9822 124.227 39.8783 123.779 40.9985C124.003 42.5667 124.564 43.5376 125.46 43.8736C125.721 43.9856 125.982 44.023 126.318 44.023C126.617 44.023 126.916 43.9856 127.215 43.911C127.513 43.8363 127.812 43.7243 128.111 43.5749C128.409 43.4255 128.708 43.2762 128.97 43.1268C129.231 42.9775 129.492 42.7908 129.791 42.6041C130.052 42.4174 130.276 42.2307 130.5 42.0813C130.687 41.932 130.874 41.7826 131.061 41.5959C131.247 41.4466 131.359 41.3345 131.434 41.2599C131.509 41.1852 131.546 41.1479 131.583 41.1105C131.546 40.9985 131.621 40.9612 131.733 40.9612ZM123.63 39.2809C123.705 39.2809 123.817 39.1315 123.929 38.7955C124.041 38.4594 124.078 38.2727 124.041 38.1981C123.929 38.1234 123.817 38.1607 123.705 38.2354C123.667 38.2727 123.63 38.3848 123.593 38.5714C123.555 38.7581 123.555 38.9075 123.555 39.0569C123.593 39.2062 123.593 39.2809 123.63 39.2809ZM123.817 37.1899C123.779 37.3766 123.817 37.4886 123.891 37.4886C123.966 37.4886 124.041 37.4886 124.115 37.4886C124.265 37.4886 124.339 37.4139 124.339 37.2646C125.161 34.9122 125.46 33.568 125.31 33.2319C125.31 33.1946 125.273 33.1573 125.198 33.1199C125.161 33.1199 125.086 33.1199 125.049 33.1573C124.862 33.3813 124.601 33.8667 124.339 34.6135C124.153 35.3976 123.929 36.2564 123.817 37.1899Z" fill="#55BECF"/>
<path d="M126.244 44.9191C125.833 44.9191 125.46 44.8444 125.087 44.6951C124.228 44.359 123.556 43.6496 123.182 42.5294C122.772 41.4466 122.622 40.1023 122.734 38.4594C122.361 38.5341 121.987 38.5714 121.577 38.5714L120.568 38.6461C120.27 38.6835 120.008 38.6835 119.784 38.6835C119.56 38.6835 119.374 38.7208 119.262 38.7208C119.112 38.7208 119.038 38.7208 119.038 38.7208C118.851 38.7208 118.702 38.6835 118.59 38.5714C118.477 38.4594 118.403 38.3101 118.403 38.1234C118.403 37.974 118.44 37.8247 118.552 37.7126C118.664 37.6006 118.814 37.5259 119 37.5259C119 37.5259 119.075 37.5259 119.187 37.5259L121.614 37.3392C122.025 37.3019 122.435 37.2646 122.809 37.2646C122.846 37.2646 122.846 37.1525 122.884 37.1152C122.958 36.5551 123.07 35.995 123.22 35.4723C123.332 34.9495 123.518 34.4268 123.668 33.9414C123.854 33.456 124.041 33.0079 124.265 32.7092C124.526 32.3358 124.788 32.1117 125.087 32.0744C125.423 31.9997 125.871 32.0744 126.207 32.7465C126.356 33.0826 126.356 33.6427 126.169 34.5015C126.02 35.2856 125.759 36.1444 125.423 37.1152C127.364 37.0032 128.783 36.9285 129.642 36.9285C129.791 36.9285 129.941 37.0032 130.09 37.1152C130.202 37.2272 130.277 37.3766 130.277 37.5259C130.277 37.6753 130.202 37.8247 130.09 37.9367C129.978 38.0487 129.829 38.1234 129.642 38.1234C128.26 38.1234 126.729 38.198 125.012 38.3101H124.975C124.75 38.9448 124.414 39.841 124.004 40.8865C124.228 42.3054 124.713 43.2015 125.497 43.5002C125.945 43.6869 126.543 43.6496 127.066 43.5376C127.327 43.4629 127.626 43.3509 127.924 43.2015C128.223 43.0521 128.522 42.9028 128.783 42.7534C129.044 42.6041 129.306 42.4174 129.567 42.2307C129.829 42.044 130.053 41.8573 130.239 41.7079C130.426 41.5586 130.613 41.4092 130.762 41.2599L131.135 40.9238C131.21 40.8491 131.248 40.8118 131.285 40.8118C131.472 40.5878 131.882 40.5878 132.144 40.8118C132.256 40.9238 132.33 41.0732 132.33 41.2599C132.33 41.4092 132.256 41.5586 132.144 41.7079C132.032 41.82 131.92 41.932 131.733 42.1187C131.546 42.268 131.248 42.5294 130.799 42.9028C130.351 43.2388 129.903 43.5749 129.455 43.8363C129.007 44.0976 128.484 44.359 127.887 44.5831C127.364 44.8071 126.767 44.9191 126.244 44.9191ZM122.734 38.0487C122.846 38.0487 122.958 38.086 123.033 38.1607C123.145 38.2354 123.182 38.3474 123.22 38.4968C123.108 40.1023 123.257 41.3719 123.63 42.38C123.966 43.3509 124.526 43.9856 125.273 44.247C126.057 44.5457 126.841 44.471 127.775 44.135C128.335 43.9109 128.82 43.6869 129.231 43.4255C129.642 43.1642 130.09 42.8654 130.501 42.5294C130.949 42.1933 131.248 41.932 131.397 41.7826C131.546 41.6333 131.696 41.5212 131.77 41.4092C131.808 41.3719 131.808 41.3345 131.808 41.3345C131.808 41.2972 131.808 41.2972 131.77 41.2599C131.733 41.2225 131.658 41.2225 131.658 41.2599C131.621 41.2972 131.584 41.3345 131.509 41.4092L131.135 41.7453C130.949 41.8946 130.762 42.0813 130.575 42.2307C130.389 42.38 130.127 42.5667 129.866 42.7534C129.605 42.9401 129.306 43.1268 129.045 43.3135C128.783 43.4629 128.484 43.6496 128.148 43.7989C127.812 43.9483 127.514 44.0603 127.215 44.135C126.58 44.3217 125.908 44.3217 125.348 44.0976C124.377 43.7243 123.742 42.6788 123.518 40.9985V40.9238L123.556 40.8491C124.004 39.729 124.34 38.8702 124.564 38.198C124.601 38.0487 124.676 37.974 124.75 37.9367C124.825 37.8993 124.937 37.862 125.049 37.862C126.729 37.7126 128.298 37.6753 129.679 37.6753C129.717 37.6753 129.717 37.6753 129.754 37.638C129.791 37.6006 129.791 37.6006 129.791 37.5633C129.791 37.5259 129.791 37.5259 129.754 37.4886C129.717 37.4513 129.717 37.4513 129.679 37.4513C128.783 37.4513 127.327 37.5259 125.311 37.638C125.236 37.638 125.124 37.6006 125.087 37.5633C125.012 37.5259 124.975 37.4513 124.937 37.3766C124.9 37.2646 124.9 37.1525 124.975 37.0405C125.311 36.0697 125.572 35.1736 125.721 34.3894C125.908 33.4186 125.833 33.0826 125.796 32.9706C125.609 32.5598 125.385 32.5598 125.236 32.5598C125.087 32.5972 124.9 32.7465 124.713 33.0079C124.526 33.3066 124.34 33.68 124.153 34.1281C124.004 34.6135 123.854 35.0989 123.705 35.6216C123.593 36.1444 123.481 36.6671 123.406 37.2272C123.332 37.7126 123.07 37.7873 122.884 37.8247C122.473 37.862 122.099 37.8993 121.689 37.8993L119.262 38.086C119.112 38.086 119.038 38.086 119.038 38.086C119 38.086 119 38.086 119 38.1234C118.963 38.1607 118.963 38.1607 118.963 38.198C118.963 38.2354 118.963 38.2354 119 38.2727C119.038 38.2727 119.038 38.3101 119.075 38.3101C119.15 38.3101 119.187 38.3101 119.299 38.3101C119.411 38.3101 119.598 38.2727 119.859 38.2727C120.083 38.2727 120.344 38.2354 120.643 38.2354L121.651 38.1607C122.062 38.1234 122.435 38.086 122.809 38.086C122.697 38.0487 122.697 38.0487 122.734 38.0487ZM123.63 39.5423C123.332 39.5423 123.332 39.2062 123.294 39.0568C123.294 38.8702 123.294 38.7208 123.332 38.5341C123.369 38.3101 123.406 38.1607 123.518 38.0487C123.742 37.8993 123.929 37.862 124.153 37.974L124.228 38.0487C124.34 38.198 124.34 38.4221 124.19 38.8702C124.041 39.2809 123.892 39.5423 123.63 39.5423ZM123.892 37.75C123.78 37.75 123.705 37.7126 123.63 37.638C123.518 37.4886 123.518 37.3019 123.556 37.1525C123.705 36.1817 123.892 35.3229 124.153 34.5388C124.414 33.7547 124.676 33.2319 124.9 32.9706C125.012 32.8585 125.124 32.8212 125.273 32.8585C125.423 32.8959 125.497 32.9705 125.572 33.1199C125.684 33.3813 125.684 34.1281 124.601 37.3392C124.564 37.5633 124.377 37.7126 124.153 37.75C124.078 37.75 124.004 37.75 123.892 37.75ZM125.124 33.568C125.012 33.792 124.825 34.1281 124.638 34.7255C124.377 35.4723 124.19 36.3311 124.078 37.2646C124.078 37.2646 124.078 37.2646 124.116 37.2646L124.153 37.1899C124.937 34.8375 125.087 33.904 125.124 33.568Z" fill="#55BECF"/>
<path d="M142.673 40.8491C142.785 40.8491 142.86 40.8865 142.935 40.9238C143.009 40.9985 143.047 41.0732 143.047 41.1852C143.047 41.2972 143.009 41.3719 142.972 41.4466C142.487 41.932 141.926 42.4547 141.217 42.9401C140.545 43.4255 139.761 43.8736 138.902 44.247C138.043 44.6204 137.259 44.8071 136.55 44.8071H136.512C135.728 44.8444 135.093 44.5831 134.571 44.023C134.347 43.7616 134.197 43.5002 134.16 43.1642C134.16 43.0521 134.085 42.9775 133.936 42.9401C133.824 42.9028 133.712 42.9401 133.637 43.0148C132.592 44.135 131.733 44.471 131.135 44.135C130.911 44.023 130.799 43.7989 130.762 43.5376C130.725 43.2762 130.762 42.9401 130.874 42.6041C130.986 42.268 131.098 41.9693 131.21 41.7079C131.322 41.4466 131.471 41.1852 131.621 40.9238C131.658 40.8491 131.733 40.7744 131.845 40.7744C131.92 40.7371 132.032 40.7745 132.106 40.8118C132.181 40.8491 132.256 40.9238 132.256 40.9985C132.256 41.0732 132.293 41.1852 132.256 41.2599C132.032 41.6333 131.882 41.9693 131.733 42.3427C131.583 42.7161 131.509 42.9775 131.509 43.1642C131.471 43.3509 131.509 43.5002 131.546 43.5376C131.77 43.6869 132.181 43.4629 132.778 42.9028C133.376 42.3427 133.973 41.6706 134.496 40.8865C134.533 40.8118 134.608 40.7745 134.72 40.7371C134.795 40.7371 134.869 40.7371 134.981 40.7744C135.056 40.8118 135.131 40.8865 135.131 40.9611C135.168 41.0358 135.168 41.1105 135.131 41.1852C135.056 41.3719 134.981 41.6333 134.944 41.8946C134.869 42.156 134.869 42.4921 134.869 42.8281C134.869 43.1642 134.944 43.4255 135.093 43.5749C135.504 43.9856 135.989 44.1723 136.55 44.135H136.587C137.222 44.135 137.931 43.9483 138.715 43.6122C139.499 43.2388 140.209 42.8654 140.881 42.38C141.516 41.932 142.038 41.4839 142.487 40.9985C142.487 40.8865 142.561 40.8491 142.673 40.8491Z" fill="#55BECF"/>
<path d="M136.438 45.0311C135.616 45.0311 134.944 44.7324 134.384 44.135C134.122 43.8363 133.973 43.5002 133.936 43.1268C133.861 43.0895 133.861 43.0895 133.861 43.1268C132.704 44.3217 131.77 44.6951 131.061 44.2843C130.799 44.135 130.613 43.8736 130.575 43.5002C130.538 43.1642 130.575 42.8281 130.687 42.4547C130.799 42.1187 130.911 41.7826 131.061 41.5212C131.173 41.2599 131.322 40.9985 131.471 40.7371C131.583 40.5878 131.695 40.5131 131.845 40.4757C131.994 40.4384 132.143 40.4757 132.293 40.5504C132.442 40.6251 132.517 40.7371 132.554 40.8865C132.592 41.0358 132.592 41.1852 132.517 41.3345C132.293 41.7079 132.106 42.0813 131.994 42.4174C131.882 42.7534 131.807 43.0148 131.77 43.1642C131.77 43.2015 131.77 43.2762 131.77 43.2762C131.882 43.2388 132.143 43.1268 132.629 42.6788C133.226 42.1187 133.786 41.4839 134.309 40.6998C134.384 40.5504 134.533 40.4757 134.683 40.4384C134.832 40.4011 134.944 40.4384 135.093 40.4757C135.243 40.5504 135.317 40.6624 135.392 40.7745C135.429 40.9238 135.467 41.0358 135.392 41.1852C135.317 41.3719 135.243 41.5959 135.205 41.8573C135.168 42.1187 135.131 42.38 135.131 42.7161C135.131 43.0148 135.205 43.2015 135.317 43.3135C135.653 43.6496 136.064 43.8363 136.55 43.7989C137.184 43.7989 137.856 43.6122 138.603 43.2762C139.387 42.9401 140.097 42.5294 140.694 42.0813C141.329 41.6333 141.852 41.1852 142.262 40.7371C142.374 40.6251 142.524 40.5504 142.673 40.5504C142.823 40.5504 142.972 40.5878 143.121 40.6998C143.233 40.8118 143.308 40.9611 143.308 41.1478C143.308 41.2972 143.271 41.4466 143.159 41.5586C142.673 42.0813 142.076 42.5667 141.366 43.0895C140.657 43.5749 139.873 44.023 139.014 44.3964C138.118 44.7698 137.296 44.9564 136.587 44.9564C136.512 45.0311 136.475 45.0311 136.438 45.0311ZM133.861 42.6041C133.898 42.6041 133.973 42.6041 134.048 42.6414C134.272 42.7161 134.384 42.8654 134.421 43.0895C134.459 43.3882 134.571 43.6122 134.757 43.8363C135.243 44.359 135.803 44.5831 136.512 44.5457C137.222 44.5457 137.968 44.359 138.79 44.023C139.649 43.6496 140.395 43.2388 141.068 42.7534C141.74 42.268 142.3 41.7826 142.785 41.2972C142.785 41.2972 142.823 41.2599 142.823 41.2225C142.823 41.1852 142.823 41.1852 142.785 41.1478C142.748 41.1105 142.748 41.1105 142.71 41.1105C142.673 41.1105 142.636 41.1105 142.636 41.1478C142.188 41.5959 141.665 42.0813 140.993 42.5294C140.358 42.9775 139.611 43.4255 138.79 43.7616C137.968 44.135 137.222 44.3217 136.55 44.3217C135.915 44.359 135.355 44.135 134.907 43.6869C134.72 43.4629 134.608 43.1642 134.608 42.7534C134.608 42.38 134.608 42.044 134.683 41.7453C134.757 41.4839 134.795 41.2225 134.869 40.9985C134.869 40.9612 134.869 40.9612 134.869 40.9238C134.869 40.9238 134.869 40.8865 134.832 40.8865C134.795 40.8865 134.795 40.8865 134.757 40.8865C134.757 40.8865 134.72 40.8865 134.72 40.9238C134.16 41.7079 133.6 42.4174 132.965 42.9775C132.256 43.6496 131.77 43.8363 131.434 43.6496L131.359 43.5749C131.285 43.4629 131.247 43.2762 131.285 43.0148C131.322 42.7908 131.397 42.5294 131.546 42.1187C131.695 41.7453 131.882 41.3719 132.106 40.9985C132.106 40.9985 132.106 40.9612 132.106 40.9238C132.106 40.8865 132.106 40.8865 132.069 40.8865C132.031 40.8865 132.031 40.8865 131.994 40.8865C131.957 40.8865 131.957 40.8865 131.919 40.9238C131.807 41.1478 131.658 41.4092 131.546 41.6706C131.434 41.932 131.322 42.2307 131.21 42.5667C131.098 42.8655 131.061 43.1642 131.098 43.3882C131.135 43.5749 131.21 43.7243 131.359 43.7989C131.845 44.0976 132.592 43.7243 133.562 42.7161C133.562 42.6414 133.712 42.6041 133.861 42.6041Z" fill="#55BECF"/>
<path d="M154.211 41.5213C154.323 41.5213 154.398 41.5586 154.472 41.6333C154.547 41.7079 154.584 41.7826 154.584 41.8946C154.584 42.0067 154.547 42.0813 154.472 42.156C154.062 42.5667 153.614 42.9028 153.091 43.2389C152.568 43.5749 152.083 43.8363 151.597 44.023C151.112 44.2097 150.589 44.3964 150.104 44.5084C149.581 44.6204 149.133 44.6951 148.722 44.6951C148.311 44.6951 147.938 44.6577 147.602 44.5831C147.117 44.3964 146.706 44.135 146.37 43.7989C146.034 43.4256 145.772 43.0148 145.623 42.5294C145.586 42.4547 145.548 42.4174 145.474 42.3801C145.399 42.3801 145.324 42.4174 145.287 42.4547C144.204 43.9483 143.345 44.7324 142.636 44.7324C142.598 44.7324 142.561 44.7324 142.486 44.7324C142.262 44.6951 142.076 44.6204 141.926 44.5084C141.777 44.3964 141.628 44.2097 141.59 44.023C141.441 43.5749 141.441 43.0895 141.59 42.5668C141.702 42.044 141.889 41.6333 142.113 41.3719C142.748 40.6251 143.383 40.3637 143.98 40.5504C144.204 40.6251 144.428 40.7371 144.577 40.9238C144.764 41.1105 144.876 41.3346 144.951 41.5586C144.951 41.6333 144.951 41.7453 144.876 41.82C144.802 41.8946 144.727 41.932 144.652 41.9693C144.54 41.9693 144.465 41.9693 144.391 41.8946C144.316 41.82 144.279 41.7453 144.241 41.6706C144.129 41.4466 143.98 41.2972 143.719 41.2225C143.42 41.1479 143.047 41.3719 142.636 41.82C142.225 42.4174 142.113 43.0522 142.225 43.7616C142.262 43.9483 142.412 44.023 142.598 44.023C142.785 44.0603 143.084 43.8736 143.495 43.5002C143.905 43.1268 144.391 42.5668 144.914 41.7453C144.988 41.5959 145.1 41.4839 145.175 41.3346C145.287 41.1852 145.324 40.9985 145.287 40.8118C145.25 40.2517 145.25 39.6543 145.324 39.0942C145.399 38.1607 145.586 37.2646 145.847 36.3684C146.146 35.4723 146.482 34.7255 146.93 34.0907C147.378 33.456 147.826 33.1199 148.311 33.0826C148.573 33.0452 148.797 33.1199 148.909 33.3813C149.096 33.68 149.058 34.2774 148.834 35.1736C148.61 36.0697 148.237 37.0032 147.751 38.0114C147.266 39.0195 146.743 40.0277 146.183 40.9612C146.071 41.1479 146.034 41.3719 146.071 41.5959C146.332 42.8281 146.893 43.6123 147.789 43.8736C148.05 43.9483 148.349 43.9856 148.685 43.9856C149.021 43.9856 149.432 43.9483 149.88 43.8363C150.328 43.7243 150.776 43.5749 151.224 43.3882C151.672 43.2015 152.12 42.9775 152.605 42.6414C153.091 42.3427 153.539 41.9693 153.912 41.5959C154.024 41.5586 154.099 41.5213 154.211 41.5213ZM145.959 39.1689C145.959 39.3929 145.959 39.5423 145.996 39.5423C146.034 39.5423 146.071 39.5049 146.146 39.3929C147.453 37.0405 148.199 35.3229 148.311 34.1654C148.311 34.0534 148.274 33.9787 148.199 33.9414C148.125 33.904 148.05 33.904 147.975 33.9414C147.527 34.2774 147.117 34.9122 146.706 35.9204C146.332 36.9285 146.071 38.0114 145.959 39.1689Z" fill="#55BECF"/>
<path d="M142.561 44.9938C142.487 44.9938 142.449 44.9938 142.375 44.9938C142.15 44.9564 141.889 44.8818 141.702 44.6951C141.516 44.5457 141.366 44.3217 141.254 44.0976C141.105 43.6122 141.105 43.0895 141.254 42.5294C141.404 41.9693 141.59 41.5586 141.852 41.2225C142.561 40.4011 143.271 40.1023 143.98 40.3264C144.241 40.4011 144.503 40.5504 144.69 40.7745C144.802 40.8865 144.876 40.9985 144.951 41.1105C144.951 41.0358 144.988 40.9612 144.951 40.8865C144.914 40.289 144.914 39.6916 144.988 39.0942C145.063 38.1607 145.25 37.2272 145.548 36.3311C145.847 35.4349 146.22 34.6508 146.669 34.0161C147.154 33.3439 147.677 32.9706 148.237 32.8959C148.61 32.8212 148.909 32.9706 149.096 33.3066C149.32 33.68 149.32 34.3148 149.058 35.2856C148.834 36.1817 148.461 37.1525 147.975 38.198C147.49 39.2062 146.967 40.2144 146.407 41.1852C146.332 41.3345 146.295 41.4839 146.332 41.6333C146.557 42.7908 147.079 43.4629 147.901 43.7243C148.125 43.7616 148.423 43.7989 148.76 43.7989C149.058 43.7989 149.469 43.7616 149.88 43.6496C150.328 43.5376 150.776 43.3882 151.224 43.2015C151.672 43.0148 152.12 42.7908 152.568 42.4921C153.016 42.1933 153.464 41.8573 153.838 41.4839C154.062 41.2599 154.472 41.2599 154.696 41.5212C154.808 41.6333 154.883 41.7826 154.883 41.932C154.883 42.0813 154.808 42.2307 154.696 42.3427C154.286 42.7534 153.8 43.1268 153.278 43.4629C152.755 43.7989 152.232 44.0603 151.747 44.2843C151.261 44.471 150.739 44.6577 150.216 44.7698C149.693 44.9191 149.208 44.9564 148.76 44.9564C148.349 44.9564 147.938 44.9191 147.602 44.8071C147.079 44.6204 146.594 44.3217 146.22 43.9483C145.884 43.5749 145.623 43.1642 145.436 42.6788C144.279 44.247 143.345 44.9938 142.561 44.9938ZM143.569 40.7371C143.159 40.7371 142.711 40.9985 142.262 41.5212C142.076 41.7826 141.889 42.156 141.777 42.6041C141.665 43.0895 141.665 43.5002 141.777 43.911C141.814 44.0603 141.926 44.1723 142.038 44.2843C142.15 44.3964 142.3 44.4337 142.487 44.471C142.524 44.471 142.561 44.471 142.599 44.471C143.009 44.471 143.793 44.0976 145.063 42.3054C145.138 42.156 145.324 42.0813 145.474 42.1187C145.66 42.156 145.81 42.2307 145.847 42.4174C145.996 42.8655 146.22 43.2388 146.557 43.5749C146.893 43.911 147.266 44.135 147.714 44.3217C148.013 44.3964 148.349 44.4337 148.722 44.4337C149.133 44.4337 149.544 44.359 150.029 44.247C150.514 44.135 151.037 43.9483 151.485 43.7616C151.971 43.5749 152.456 43.3135 152.942 42.9775C153.427 42.6414 153.875 42.3054 154.286 41.932C154.323 41.8946 154.323 41.8946 154.323 41.8573C154.323 41.82 154.323 41.82 154.286 41.7826C154.248 41.7453 154.174 41.7453 154.174 41.7826C153.763 42.1933 153.315 42.5294 152.83 42.8655C152.344 43.2015 151.859 43.4255 151.373 43.6122C150.925 43.7989 150.44 43.9483 149.992 44.0603C149.506 44.1723 149.096 44.247 148.722 44.247C148.349 44.247 148.05 44.2097 147.751 44.135C146.743 43.7989 146.108 42.9775 145.81 41.6333C145.735 41.3345 145.81 41.0732 145.959 40.8118C146.519 39.8783 147.042 38.8702 147.49 37.862C147.975 36.8538 148.311 35.9204 148.536 35.0615C148.834 34.016 148.722 33.6053 148.648 33.4933C148.573 33.3439 148.461 33.3066 148.274 33.3439C147.863 33.3813 147.453 33.7173 147.042 34.2774C146.631 34.8749 146.258 35.6216 145.996 36.4804C145.735 37.3392 145.548 38.2354 145.474 39.1315C145.436 39.6916 145.399 40.2517 145.436 40.8118C145.474 41.0358 145.399 41.2599 145.287 41.4839C145.212 41.6333 145.1 41.7826 145.026 41.8946C144.466 42.7161 143.98 43.3135 143.569 43.6869C143.084 44.135 142.748 44.2843 142.449 44.247C142.188 44.247 141.964 44.0603 141.889 43.7989C141.74 43.0148 141.889 42.3054 142.337 41.6333C142.86 41.0358 143.271 40.8118 143.681 40.9238C144.017 41.0358 144.241 41.2225 144.391 41.5212V41.5586C144.391 41.5959 144.391 41.5959 144.428 41.6333C144.428 41.6333 144.466 41.6333 144.503 41.6333C144.54 41.6333 144.54 41.6333 144.578 41.5959C144.615 41.5586 144.615 41.5212 144.615 41.5212C144.578 41.3719 144.466 41.1852 144.316 41.0358C144.167 40.8865 144.017 40.7745 143.831 40.7371C143.756 40.7371 143.644 40.7371 143.569 40.7371ZM143.532 41.4466C143.345 41.4466 143.047 41.6333 142.748 42.0066C142.412 42.5294 142.263 43.0895 142.375 43.7616C142.375 43.7989 142.412 43.8363 142.487 43.8363C142.524 43.8363 142.711 43.8363 143.196 43.3882C143.495 43.1268 143.831 42.7161 144.241 42.1933C144.204 42.1933 144.167 42.156 144.129 42.1187C144.017 42.044 143.943 41.8946 143.905 41.7826C143.831 41.6333 143.719 41.5586 143.569 41.4839C143.607 41.4466 143.569 41.4466 143.532 41.4466ZM145.996 39.8036H145.884L145.772 39.729C145.698 39.6169 145.66 39.4676 145.66 39.2062C145.772 38.0114 146.034 36.8912 146.444 35.883C146.855 34.8375 147.303 34.1654 147.789 33.8294C147.938 33.7173 148.125 33.7173 148.274 33.792C148.423 33.8667 148.535 34.0534 148.498 34.2401C148.386 35.4349 147.639 37.1525 146.295 39.5423C146.332 39.6169 146.22 39.8036 145.996 39.8036ZM148.05 34.2401C147.677 34.5388 147.303 35.1736 146.93 36.0324C146.594 36.8165 146.37 37.7126 146.258 38.6461C147.341 36.7045 147.938 35.2482 148.05 34.2401Z" fill="#55BECF"/>
<path d="M87.7098 29.498V9.93224H90.2862V29.498H87.7098ZM89.054 12.3593V9.93224H96.1858V12.3593H89.054ZM89.054 19.3044V16.8773H95.5137V19.3044H89.054ZM89.054 29.498V27.071H96.1858V29.498H89.054Z" fill="#E45627"/>
<path d="M99.5838 29.498V9.93224H102.16V29.498H99.5838ZM100.928 12.3593V9.93224H108.06V12.3593H100.928ZM100.928 19.3044V16.8773H107.388V19.3044H100.928ZM100.928 29.498V27.071H108.06V29.498H100.928Z" fill="#E45627"/>
<path d="M111.495 29.498V9.93224H114.071V29.498H111.495ZM112.914 21.9181V19.4911H116.648C117.17 19.4911 117.581 19.3044 117.917 18.9683C118.216 18.5949 118.365 18.1095 118.365 17.4748V14.4876C118.365 13.8155 118.216 13.2928 117.917 12.9567C117.619 12.5833 117.208 12.3966 116.648 12.3966H112.914V9.96958H116.573C117.507 9.96958 118.291 10.1563 118.963 10.4923C119.635 10.8284 120.12 11.3511 120.456 12.0232C120.792 12.6953 120.979 13.5168 120.979 14.4503V17.5494C120.979 18.4829 120.792 19.2671 120.456 19.9018C120.12 20.5739 119.598 21.0593 118.963 21.3954C118.291 21.7314 117.507 21.9181 116.61 21.9181H112.914Z" fill="#E45627"/>
<path d="M81.3994 29.274L78.8604 21.0593C78.823 21.022 78.823 20.9846 78.7483 20.9846H76.8067C76.732 20.9846 76.6947 21.022 76.6947 21.0967V29.1993C76.6947 29.386 76.62 29.4606 76.4333 29.4606H74.305C74.1183 29.4606 74.0436 29.386 74.0436 29.1993V10.4923C74.0436 10.3056 74.1183 10.2309 74.305 10.2309H79.2711C80.2046 10.2309 81.0634 10.455 81.7728 10.903C82.4823 11.3511 83.0424 12.0232 83.4531 12.8447C83.8638 13.6662 84.0505 14.637 84.0505 15.6825C84.0505 16.84 83.8265 17.8481 83.3411 18.7069C82.8557 19.5658 82.1836 20.1632 81.3621 20.5739C81.3247 20.6112 81.2874 20.6859 81.3247 20.7233L84.1625 29.1619L84.1999 29.274C84.1999 29.386 84.1252 29.4606 83.9385 29.4606H81.7728C81.5488 29.498 81.4368 29.4233 81.3994 29.274ZM76.6573 12.6207V18.7816C76.6573 18.8563 76.6947 18.8936 76.7694 18.8936H78.823C79.5698 18.8936 80.2046 18.5949 80.6526 18.0348C81.1007 17.4748 81.3621 16.6906 81.3621 15.7198C81.3621 14.7116 81.1381 13.9275 80.6526 13.3674C80.2046 12.8074 79.5698 12.5086 78.823 12.5086H76.7694C76.6947 12.5086 76.6573 12.546 76.6573 12.6207Z" fill="#E45627"/>
<path d="M143.457 29.274L140.918 21.0593C140.881 21.022 140.881 20.9846 140.806 20.9846H138.865C138.79 20.9846 138.753 21.022 138.753 21.0967V29.1993C138.753 29.386 138.678 29.4606 138.491 29.4606H136.363C136.176 29.4606 136.101 29.386 136.101 29.1993V10.4923C136.101 10.3056 136.176 10.2309 136.363 10.2309H141.329C142.262 10.2309 143.121 10.455 143.831 10.903C144.54 11.3511 145.1 12.0232 145.511 12.8447C145.922 13.6662 146.108 14.637 146.108 15.6825C146.108 16.84 145.884 17.8481 145.399 18.7069C144.913 19.5658 144.241 20.1632 143.42 20.5739C143.383 20.6112 143.345 20.6859 143.383 20.7233L146.22 29.1619L146.258 29.274C146.258 29.386 146.183 29.4606 145.996 29.4606H143.831C143.644 29.498 143.532 29.4233 143.457 29.274ZM138.753 12.6207V18.7816C138.753 18.8563 138.79 18.8936 138.865 18.8936H140.918C141.665 18.8936 142.3 18.5949 142.748 18.0348C143.196 17.4748 143.457 16.6906 143.457 15.7198C143.457 14.7116 143.233 13.9275 142.748 13.3674C142.3 12.8074 141.665 12.5086 140.918 12.5086H138.865C138.79 12.5086 138.753 12.546 138.753 12.6207Z" fill="#E45627"/>
<path d="M157.385 10.4923V12.2099C157.385 12.3966 157.31 12.4713 157.123 12.4713H153.464C153.389 12.4713 153.352 12.5086 153.352 12.5833V29.1993C153.352 29.386 153.277 29.4607 153.091 29.4607H150.962C150.776 29.4607 150.701 29.386 150.701 29.1993V12.6207C150.701 12.546 150.664 12.5086 150.589 12.5086H147.154C146.967 12.5086 146.892 12.434 146.892 12.2473V10.5297C146.892 10.343 146.967 10.2683 147.154 10.2683H157.123C157.273 10.2309 157.385 10.3056 157.385 10.4923Z" fill="#E45627"/>
<path d="M124.788 28.0791C123.854 27.1456 123.406 25.9508 123.406 24.4199V14.8237C123.406 13.2928 123.854 12.0606 124.788 11.1644C125.721 10.2309 126.953 9.78288 128.447 9.78288C129.978 9.78288 131.21 10.2309 132.143 11.1644C133.077 12.0979 133.562 13.3301 133.562 14.8237V24.4199C133.562 25.9508 133.077 27.1456 132.143 28.0791C131.21 29.0126 129.978 29.4607 128.447 29.4607C126.953 29.4607 125.721 29.0126 124.788 28.0791ZM130.239 26.4362C130.687 25.9508 130.911 25.316 130.911 24.5319V14.6743C130.911 13.8902 130.687 13.2554 130.239 12.77C129.791 12.2846 129.194 12.0232 128.447 12.0232C127.737 12.0232 127.14 12.2846 126.692 12.77C126.244 13.2554 126.057 13.8902 126.057 14.6743V24.5319C126.057 25.316 126.281 25.9508 126.692 26.4362C127.14 26.9216 127.7 27.183 128.447 27.183C129.194 27.183 129.791 26.9216 130.239 26.4362Z" fill="#E45627"/>
<path d="M63.0285 30.0581V10.5297H65.6049V30.0581H63.0285ZM64.4101 12.9194V10.4923H71.5419V12.9194H64.4101Z" fill="#E45627"/>
<path d="M20.0885 39.2809C18.931 39.0195 17.7735 38.6461 16.8026 37.974C15.8318 37.2646 15.1224 36.1817 15.1224 34.9869C15.1224 33.3813 16.5413 31.9997 18.1095 31.589C19.6778 31.1409 21.3207 31.4396 22.8889 31.8504C25.1293 32.4478 27.295 33.2319 29.386 34.2774C30.5062 34.8375 31.6263 35.4723 32.2238 36.5551C32.6345 37.2646 32.7092 38.198 32.3731 38.9448C31.925 39.8783 31.1409 39.8036 30.2448 39.9156C28.0791 40.177 25.9134 40.177 23.7477 39.9156C22.5155 39.7663 21.2834 39.5796 20.0885 39.2809Z" fill="#55BECF"/>
<path d="M38.7207 37.75C40.9984 37.4139 42.9774 35.9577 44.583 34.3148C46.3753 32.4851 47.8688 30.2448 47.8688 27.5564C47.8688 26.5109 47.6075 25.5027 47.0474 24.6066C45.2924 21.9555 42.0812 22.1048 39.2808 22.4035C35.9576 22.7396 32.5971 23.0383 29.2739 23.3744C26.9215 23.5984 24.3824 23.4864 22.7022 25.4654C21.6193 26.7722 21.0966 28.7139 21.9927 30.2448C22.5902 31.2903 23.673 31.7383 24.6812 32.2984C26.1374 33.0826 27.5936 33.904 29.0125 34.6881C31.9623 36.2564 35.2482 38.2727 38.7207 37.75Z" fill="#F29A7A"/>
<path d="M4.70485 33.4933C4.48082 31.2529 4.25679 28.9006 5.22761 26.8843C5.67568 25.9881 6.31044 25.204 6.94521 24.4572C7.61731 23.6731 8.28942 22.9263 9.14823 22.3662C10.9032 21.2834 13.1062 21.358 15.1598 21.4701C15.3465 21.4701 15.5332 21.5074 15.6453 21.5821C15.7946 21.6941 15.8693 21.8808 15.9066 22.0675C17.1388 26.4362 17.0641 31.0662 16.9895 35.6216C16.9895 36.2191 16.9521 36.8538 16.7654 37.4139C16.5414 37.974 16.168 38.4594 15.7573 38.9075C14.9731 39.841 14.077 40.8491 12.8822 41.1105C12.2474 41.2599 11.5753 41.1478 10.9032 41.0358C8.88685 40.6998 6.79585 40.2517 5.26494 38.8702C3.80871 37.5633 3.13661 35.547 3.06193 33.6053C2.98725 31.1409 3.84605 28.6019 5.4143 26.6976" fill="#E45627"/>
<path d="M39.729 53.4698C39.5423 53.4698 39.3929 53.4325 39.2062 53.3951L38.9448 53.3204V53.0591C38.7955 49.7359 38.7955 46.338 38.9075 42.9775L39.729 43.0148C39.6169 46.226 39.6169 49.4745 39.7663 52.6857C39.8783 52.6857 39.953 52.6483 40.065 52.611C40.4757 52.387 40.9238 51.7522 41.1105 51.0428C41.3345 50.1466 41.4839 49.1385 41.6333 48.205C41.8946 46.338 42.1933 44.3964 43.2388 42.7908C43.4629 42.4174 43.7616 42.0813 44.023 41.7453C44.6577 40.9612 45.2178 40.177 45.3298 39.2809C45.3298 39.1315 45.3298 38.9822 45.3298 38.7955C45.3298 38.6835 45.3298 38.5714 45.3298 38.4594C45.1805 38.5341 45.0685 38.6088 44.9191 38.6835L44.8071 38.7581C44.5084 38.9448 44.2097 39.0942 43.911 39.2809C42.4547 40.177 40.7745 41.1479 39.4302 42.3427C39.0569 42.6788 38.5341 43.3135 38.2727 43.7243C38.086 43.9856 37.8993 44.2843 37.7126 44.5831C37.3766 45.0685 36.9285 45.5539 36.2564 45.7406C35.2856 46.002 34.3148 45.7406 33.3439 45.4045C28.4898 43.7989 23.5237 42.2307 18.6323 40.7745C18.2589 40.6624 17.9228 40.5504 17.5494 40.4384C16.4666 40.1024 15.3464 39.7663 14.2636 39.6169C13.2181 39.4676 12.3593 39.6916 11.6872 40.289C11.1644 40.7371 10.791 41.2972 10.455 41.7826C10.0069 42.4921 9.93224 43.2762 9.85756 44.135L9.82022 44.3964C9.82022 44.5084 9.78288 44.8444 9.74554 45.3298C9.67086 46.226 9.59618 47.6075 9.48417 48.7651C9.44683 49.3251 9.40949 49.8479 9.37215 50.2213C9.29747 50.8934 9.26013 51.1921 8.88674 51.1921L7.84124 51.2294L7.76656 50.9307C7.46784 50.0346 7.46785 49.1011 7.46785 48.205L7.43051 38.8328C7.43051 38.7581 7.43051 38.6461 7.43051 38.5714C7.43051 38.3101 7.43051 38.0487 7.39317 37.862C7.35583 37.75 7.31849 37.6753 7.09446 37.6006C6.49703 37.3393 5.78758 37.1899 5.11548 37.0405C4.81676 36.9659 4.48071 36.8912 4.18199 36.8165C3.54723 36.6671 2.9498 36.4805 2.31503 36.3311C2.27769 36.3311 2.16568 36.2938 2.05366 36.2938C0.746785 36.0324 0.522748 35.9577 0.44807 35.659C0.149356 34.3148 0 32.9332 0 31.5517V31.2903L0.224032 31.1783C1.38155 30.6929 2.35237 30.5062 3.43521 30.2821C3.47255 30.2448 3.47255 30.2448 3.50989 30.2075C3.69658 29.9461 4.03264 30.0208 4.25667 30.0954C4.29401 30.0954 4.33135 30.1328 4.40603 30.1328C4.44337 30.1328 4.48071 30.1328 4.51805 30.0954L5.78758 29.8341L4.89144 30.7675C4.77942 30.9169 4.59272 30.9542 4.44337 30.9169C4.25667 30.9542 4.06998 30.9916 3.88328 31.0289C3.8086 31.1036 3.69658 31.1036 3.58456 31.1036C3.58456 31.1036 3.58457 31.1036 3.54723 31.1036C2.57641 31.2903 1.75494 31.4397 0.821462 31.813C0.821462 32.9706 0.970819 34.1281 1.19485 35.2856C1.45623 35.3603 1.97898 35.4723 2.20301 35.5096C2.35237 35.547 2.46439 35.547 2.50173 35.5843C3.1365 35.7337 3.73392 35.9204 4.36869 36.0697C4.6674 36.1444 4.96612 36.2191 5.30217 36.2938C6.01162 36.4431 6.72106 36.5925 7.39317 36.8912C7.65454 37.0032 7.99059 37.1899 8.13995 37.6753C8.25197 38.0114 8.21463 38.3474 8.21463 38.6461C8.21463 38.7208 8.21463 38.7955 8.21463 38.9075L8.25197 48.2796C8.25197 49.0264 8.25197 49.7732 8.43867 50.4827H8.55068C8.6627 49.5492 8.88674 46.562 8.96142 45.3672C8.99876 44.8818 9.0361 44.5457 9.0361 44.4337L9.07343 44.1723C9.14811 43.2389 9.22279 42.3054 9.78288 41.4466C10.1563 40.8865 10.567 40.2891 11.1644 39.7663C12.0232 39.0195 13.0687 38.7208 14.3756 38.9075C15.5331 39.0569 16.6906 39.4302 17.8108 39.7663C18.1842 39.8783 18.5203 39.9903 18.8563 40.1024C23.7851 41.5586 28.7139 43.0895 33.6053 44.7324C34.4641 45.0311 35.3229 45.2552 36.0324 45.0685C36.4804 44.9565 36.7418 44.6577 37.0405 44.2097C37.2272 43.9483 37.4139 43.6496 37.6006 43.3882C37.8993 42.9401 38.4594 42.2307 38.9075 41.8573C40.3264 40.6251 42.0067 39.5796 43.5002 38.7208C43.7989 38.5341 44.0976 38.3474 44.3964 38.1981L44.5084 38.1234C44.9191 37.8993 45.2925 37.6753 45.6286 37.4513C45.7032 37.3019 45.7779 37.1899 45.8526 37.0779C45.9273 36.9659 46.0019 36.8538 46.0766 36.7418C46.4874 35.9577 46.45 34.9869 46.3753 34.0161V33.7547C46.3007 32.4105 46.338 31.0289 46.4874 29.6474C46.5994 28.7886 47.0101 28.6019 47.3835 28.6019C47.8316 28.6019 48.2423 28.9379 48.317 29.386C48.6904 31.5143 48.5037 33.7547 47.7196 35.771C47.5329 36.2564 47.2715 36.9285 46.7861 37.4513C46.6367 37.638 46.45 37.7873 46.3007 37.9367C46.2633 37.974 46.2633 38.0487 46.2633 38.086C46.1886 38.3101 46.1886 38.6088 46.1886 38.8702C46.1886 39.0569 46.1886 39.2436 46.1886 39.4303C46.0766 40.5504 45.4045 41.4466 44.7324 42.3054C44.471 42.6414 44.2097 42.9775 43.9856 43.3135C43.0148 44.8071 42.7908 46.562 42.5294 48.429C42.38 49.3998 42.2307 50.408 42.0067 51.3415C41.82 52.0509 41.3345 53.0217 40.5504 53.4325C40.177 53.3951 39.953 53.4698 39.729 53.4698ZM47.3088 29.2366C47.3088 29.2366 47.2341 29.274 47.1968 29.5727C47.0474 30.8796 47.0101 32.2238 47.0848 33.5307V33.792C47.0848 34.0161 47.1221 34.2774 47.1221 34.5388C47.6075 32.8585 47.7196 31.1036 47.4208 29.386C47.4208 29.3113 47.3462 29.2366 47.3088 29.2366Z" fill="black"/>
<path d="M33.6427 42.156L33.1947 41.4839L33.4187 41.3345C34.5015 40.5878 36.3685 39.2809 37.6007 38.0114C37.5633 38.0114 37.5633 37.974 37.526 37.974C37.1153 37.6753 36.5925 37.6753 36.0324 37.6753H35.9578C32.5225 37.7126 29.162 36.9659 25.9135 36.2564L3.69665 31.4396L3.88334 30.6555L26.1002 35.4723C29.3114 36.1817 32.6346 36.8912 35.9578 36.8538H36.0324C36.6672 36.8538 37.414 36.8538 38.0114 37.3019C38.0487 37.3392 38.0861 37.3392 38.1234 37.3766C38.3848 37.0405 38.5715 36.7045 38.6835 36.4058C39.0196 35.3229 38.8329 34.2027 38.6462 33.0079C38.6088 32.7839 38.5715 32.5598 38.5715 32.3731C37.8994 32.2984 37.2646 32.1864 36.6672 32.0371C31.3277 30.9542 26.1375 29.7967 21.0967 28.6765C16.0933 27.5564 10.9031 26.3988 5.56361 25.316L3.80867 24.9426L16.504 21.8808C17.6615 21.5821 18.819 21.134 20.0886 20.6113C22.0302 19.8271 24.0839 19.0057 26.1002 19.0057L34.8749 18.931C36.9659 18.8937 39.2809 18.8937 41.3346 19.8645C42.5295 20.4246 43.2762 21.3207 43.3509 22.2915C43.3883 22.5902 43.2762 22.9636 43.1269 23.2997C43.1642 23.337 43.2389 23.3744 43.2762 23.4117C43.575 23.6731 43.799 24.0091 44.023 24.3452C44.2097 24.6066 44.3964 24.8679 44.6205 25.092C44.9939 25.4654 45.5539 25.7267 46.0767 25.9881C47.0475 26.4735 48.0557 26.9963 48.2797 28.1538L48.3544 28.5272L47.981 28.6392C45.4793 29.3113 43.0895 30.4315 40.9612 31.9251C40.9612 31.9997 40.9239 32.0744 40.8865 32.1491L40.8119 32.3731L40.5878 32.4105C40.1771 32.4851 39.8037 32.4851 39.393 32.4851C39.4303 32.6345 39.4303 32.7839 39.4676 32.9706C39.6543 34.2027 39.841 35.4723 39.4676 36.7418C39.3183 37.2272 39.0196 37.7126 38.5715 38.2354C38.6088 38.3101 38.6088 38.3847 38.6088 38.4968C38.6462 39.2809 38.0114 39.6543 37.638 39.8783C37.302 40.065 36.4432 40.5878 35.659 41.0732C34.8376 41.4466 33.9788 41.9693 33.6427 42.156ZM39.2809 31.6263C39.505 31.6263 39.7664 31.6263 39.9904 31.6263V31.589C40.0651 31.5517 40.1024 31.5143 40.1771 31.4396C40.1398 31.2529 40.0277 31.0662 39.8784 30.9542C39.729 30.8049 39.4676 30.6555 39.2436 30.6929C39.2436 30.9916 39.2436 31.2903 39.2809 31.6263ZM7.50525 24.8679C12.21 25.8388 16.8401 26.8843 21.2834 27.8924C26.2869 29.0126 31.477 30.1701 36.8166 31.2529C37.3393 31.365 37.8994 31.477 38.4595 31.5517C38.4221 31.1409 38.4221 30.7302 38.4595 30.3195V30.0954L38.6835 29.9834C39.2436 29.722 39.9531 29.8714 40.4385 30.3568C40.6252 30.5435 40.7745 30.7302 40.8492 30.9542C42.8282 29.61 45.0685 28.5645 47.3462 27.8924C47.0475 27.3323 46.4127 27.0336 45.666 26.6602C45.0685 26.3615 44.4711 26.0628 43.9857 25.6147C43.7243 25.3533 43.5003 25.0546 43.2762 24.7559C43.0522 24.4572 42.8655 24.1958 42.6415 23.9718L42.6041 23.9345C42.3428 24.2332 42.044 24.4199 41.7453 24.4945C41.5586 24.5319 40.9239 24.6066 40.6252 23.7104L40.5878 23.6357V23.5611C40.6252 23.001 40.9612 22.7769 41.1479 22.7023C41.5213 22.5529 41.932 22.6649 42.3054 22.8516C42.3801 22.6649 42.4174 22.4782 42.4174 22.3289C42.3428 21.3954 41.2973 20.798 40.8492 20.5739C38.9449 19.6778 36.7045 19.7151 34.7256 19.7151L25.9508 19.7898C24.0839 19.7898 22.1422 20.6113 20.2379 21.358C19.0431 21.8435 17.7735 22.3662 16.5413 22.6276L7.50525 24.8679ZM41.484 23.5237C41.5213 23.6357 41.596 23.6731 41.6333 23.6731C41.708 23.6731 41.82 23.5984 41.932 23.4864C41.7453 23.4117 41.596 23.3744 41.5213 23.4117C41.484 23.4117 41.484 23.449 41.484 23.5237Z" fill="black"/>
<path d="M33.7545 42.268L33.3811 42.2307C31.2901 41.9693 29.1991 41.5212 27.1828 41.0358C23.7102 40.2517 20.0883 39.4302 16.6158 38.3847C15.1969 37.974 13.7407 37.4886 12.3218 37.0032C9.55866 36.1071 6.72087 35.1736 3.84575 34.5388L3.99511 33.8294C3.95777 33.8294 3.8831 33.792 3.80842 33.7547H3.77108C3.39768 33.6427 3.43502 33.3066 3.47236 33.2693C3.5097 33.1199 3.65906 32.8959 3.95777 32.9706C4.51786 33.0826 4.7419 33.1199 4.81658 33.1573C4.92859 33.1573 5.04061 33.1946 5.15263 33.1946C5.63804 33.2693 6.16079 33.3439 6.6462 33.4933C7.05693 33.6427 7.43032 33.8294 7.80372 34.0161C8.06509 34.1654 8.32647 34.2774 8.58784 34.3894C9.11059 34.6135 9.67068 34.7255 10.2308 34.8749L21.5072 37.5259C23.7102 38.0487 25.9879 38.5714 28.1536 39.2809C28.415 39.3556 28.7137 39.4676 28.9751 39.5423C30.4313 40.0277 31.9622 40.5504 33.4931 40.5504H33.9785L33.7545 42.268ZM12.6952 36.2937C14.0394 36.7418 15.4583 37.1899 16.8025 37.6006C20.275 38.6461 23.8596 39.4676 27.3321 40.2517C28.4523 40.5131 29.6098 40.7745 30.7674 40.9985C30.0952 40.8118 29.4231 40.5878 28.7884 40.3637C28.527 40.2517 28.2283 40.177 27.9669 40.1023C25.8012 39.3929 23.5609 38.8702 21.3952 38.3474L12.6952 36.2937ZM5.30199 34.0534C5.82474 34.1654 6.34748 34.3148 6.83289 34.4641C6.68354 34.3894 6.57152 34.3521 6.42216 34.3148C6.08611 34.2027 5.71272 34.1281 5.30199 34.0534Z" fill="black"/>
<path d="M33.9787 40.6624L32.9706 40.4384L34.3894 39.2435C34.8749 38.8328 35.3603 38.4221 35.771 37.974L36.3684 38.5341C35.9204 39.0195 35.3976 39.4676 34.9122 39.8783L34.0907 40.5504L34.0161 40.4757L33.9787 40.6624Z" fill="black"/>
<path d="M4.6675 33.6053L4.29411 32.8959C5.07823 32.4851 5.82501 32.1117 6.60914 31.701L6.98253 32.4105C6.19841 32.8212 5.45162 33.1946 4.6675 33.6053Z" fill="black"/>
<path d="M5.86212 33.9414L5.45139 33.2319C6.23551 32.7839 7.09431 32.4105 7.99046 32.1491L8.21449 32.9332C7.39303 33.1572 6.6089 33.4933 5.86212 33.9414Z" fill="black"/>
<path d="M9.43369 32.2242L7.19987 33.72L7.65694 34.4026L9.89075 32.9067L9.43369 32.2242Z" fill="black"/>
<path d="M9.37215 35.0615L8.96143 34.3521C9.78289 33.8667 10.567 33.3066 11.2765 32.7092L11.7992 33.3439C11.0524 33.9787 10.231 34.5388 9.37215 35.0615Z" fill="black"/>
<path d="M12.6114 32.9955L10.6059 34.6717L11.1327 35.3021L13.1382 33.6259L12.6114 32.9955Z" fill="black"/>
<path d="M14.181 33.5198L12.6182 35.0725L13.1972 35.6552L14.76 34.1025L14.181 33.5198Z" fill="black"/>
<path d="M16.0086 33.9629L14.3657 35.5405L14.9347 36.133L16.5776 34.5555L16.0086 33.9629Z" fill="black"/>
<path d="M17.745 34.2468L16.1344 36.0123L16.7412 36.5659L18.3519 34.8004L17.745 34.2468Z" fill="black"/>
<path d="M17.8107 37.2272L17.6614 36.4431C17.736 36.4431 17.8481 36.2937 17.9227 36.2191L19.5283 34.4268L20.1258 34.9869L18.5202 36.7792C18.4082 36.9285 18.1841 37.1899 17.8107 37.2272Z" fill="black"/>
<path d="M20.1258 37.638L19.5284 37.1152C20.0138 36.5925 20.4246 35.995 20.7979 35.3603L21.5074 35.771C21.0967 36.4431 20.6486 37.0779 20.1258 37.638Z" fill="black"/>
<path d="M21.5074 37.974L20.7606 37.7126C21.0593 36.8538 21.5074 36.0324 22.1048 35.3229L22.7395 35.8457C22.1795 36.4804 21.8061 37.1899 21.5074 37.974Z" fill="black"/>
<path d="M22.4783 38.086C22.441 38.086 22.4037 38.086 22.3663 38.086L22.4783 37.3019C22.441 37.3019 22.4037 37.3019 22.3663 37.3019C22.3663 37.3019 22.4037 37.3019 22.441 37.2272L23.6358 35.8457L24.2333 36.3684L23.0384 37.75C23.0384 37.8246 22.8144 38.086 22.4783 38.086Z" fill="black"/>
<path d="M24.3452 38.5341L23.6357 38.1607C24.1211 37.2646 24.7559 36.4431 25.4653 35.771L26.0254 36.3684C25.3533 36.9658 24.7932 37.7126 24.3452 38.5341Z" fill="black"/>
<path d="M25.5027 39.0942L24.8306 38.6461C25.0173 38.3474 25.2787 38.086 25.5027 37.8247C25.5774 37.75 25.6147 37.6753 25.6894 37.638C26.0628 37.2272 26.3989 36.8165 26.6976 36.3311L27.3697 36.7418C27.071 37.2646 26.6976 37.75 26.2869 38.1607C26.2122 38.2354 26.1375 38.3101 26.1002 38.3847C25.8761 38.6461 25.6521 38.8702 25.5027 39.0942Z" fill="black"/>
<path d="M27.954 36.4704L26.0177 38.7938L26.6487 39.3197L28.585 36.9963L27.954 36.4704Z" fill="black"/>
<path d="M29.8412 36.955L27.4756 38.9574L28.0063 39.5844L30.3719 37.582L29.8412 36.955Z" fill="black"/>
<path d="M29.1619 39.8783L28.6018 39.2809C29.3486 38.6088 30.0953 37.974 30.8795 37.3392L31.3649 37.974C30.6554 38.6088 29.9086 39.2435 29.1619 39.8783Z" fill="black"/>
<path d="M31.4197 37.7608L29.6068 39.7964L30.2203 40.3427L32.0332 38.3071L31.4197 37.7608Z" fill="black"/>
<path d="M31.4023 40.5878L30.8422 40.0277C31.7757 39.0942 32.7465 38.198 33.792 37.3392L34.3148 37.974C33.2693 38.7955 32.2984 39.6543 31.4023 40.5878Z" fill="black"/>
<path d="M32.9333 40.6251L32.3358 40.065C33.008 39.3556 33.7174 38.6834 34.4642 38.0487L34.9869 38.6835C34.2775 39.2809 33.6054 39.953 32.9333 40.6251Z" fill="black"/>
<path d="M3.07343 24.8802L3.06329 30.0704L3.88476 30.072L3.89489 24.8818L3.07343 24.8802Z" fill="black"/>
<path d="M5.05584 25.0159L4.23438 25.0236L4.28472 30.4004L5.10618 30.3927L5.05584 25.0159Z" fill="black"/>
<path d="M5.742 29.1534L5.5741 29.9575L38.9821 36.9333L39.15 36.1291L5.742 29.1534Z" fill="black"/>
<path d="M8.66267 25.8761L8.43863 25.092L20.9473 21.8061L33.5679 12.4713C34.7628 11.5005 35.2856 10.679 35.1362 10.0816C34.9122 9.18545 33.1572 8.73738 32.5971 8.62536L31.7383 8.47601L40.1397 1.23219L34.6508 0.858802L4.18196 25.204L3.65921 24.5692L34.3894 0L42.156 0.560089L33.5306 8.02794C34.3894 8.28931 35.6589 8.81206 35.9203 9.8949C36.1817 10.8657 35.5469 11.9486 34.0907 13.1434L21.3207 22.5902L8.66267 25.8761Z" fill="black"/>
<path d="M42.5667 23.7851C39.5422 14.8984 34.8001 1.41889 34.2027 0.634761L34.8375 0.149351C35.6963 1.26953 42.5667 21.246 43.3135 23.5237L42.5667 23.7851Z" fill="black"/>
<path d="M70.0111 17.6615H64.4102V20.0885H70.0111V17.6615Z" fill="#E45627"/>
<path d="M119.859 40.2517C119.448 40.5504 118.776 40.9238 118.365 41.1105C117.768 41.3719 117.656 41.4839 117.731 41.5959C117.917 42.0813 117.917 42.5667 117.656 43.1642C117.282 43.911 116.685 44.5457 115.789 44.9938C115.154 45.2552 114.893 45.3672 114.183 45.3672C113.474 45.4045 113.25 45.3672 112.839 45.1805C112.204 44.8071 111.943 44.4337 111.943 43.8363C111.943 42.9775 112.764 42.2307 114.221 41.6333C114.669 41.4466 115.191 41.2225 115.378 41.1478L115.677 40.9985L114.519 40.4757C113.212 39.8036 112.988 39.6169 113.026 38.7208C113.026 37.5259 113.922 36.4431 114.669 36.4431C114.893 36.4431 115.117 36.5178 115.303 36.7418C115.565 37.1152 115.528 37.5633 115.042 38.4968C114.855 38.9075 114.669 39.2062 114.669 39.3182C114.669 39.3556 115.042 39.5423 115.416 39.6916C115.826 39.8783 116.312 40.1397 116.536 40.3264L116.909 40.5878L117.955 40.1023C119.112 39.5049 119.822 39.0569 120.643 38.3474C121.016 38.0487 121.278 37.8993 121.502 37.8993C121.688 37.8993 121.763 37.974 121.875 38.1234C122.137 38.6088 121.651 39.1315 119.859 40.2517ZM116.648 41.8946C116.498 41.82 113.959 42.8655 113.549 43.1642C113.063 43.5749 112.951 43.8736 113.287 44.0977C113.474 44.247 113.773 44.3217 114.146 44.3217C115.042 44.3217 116.2 43.7243 116.573 42.9028C116.76 42.5667 116.797 42.0067 116.648 41.8946Z" fill="#55BECF"/>
<path d="M65.5674 41.4839C65.7541 41.0732 65.9782 40.6998 66.2395 40.3637C66.5009 40.065 66.837 39.8783 67.285 39.8783C67.7704 39.9156 68.1065 40.1023 68.2932 40.5131C68.4799 40.8865 68.6666 41.3345 68.7786 41.8573C68.8533 42.2307 68.9653 42.6041 69.1147 42.9401C69.264 43.2762 69.4507 43.5749 69.7121 43.7616C70.4215 43.5375 71.019 43.2015 71.5044 42.7161C72.0271 42.2307 72.4752 41.7079 72.8859 41.1478C73.0726 40.8865 73.2593 40.6624 73.4833 40.4011C73.5207 40.3637 73.5954 40.289 73.6327 40.2144C73.7821 40.0277 73.9314 39.841 74.1181 39.6916C74.3048 39.5423 74.4915 39.5049 74.7529 39.5796C74.9396 39.841 74.9396 40.1397 74.7529 40.4011C74.5662 40.6624 74.3421 40.9611 74.0434 41.2225C73.8941 41.3719 73.7447 41.5212 73.5954 41.7079C73.3713 41.9693 73.1473 42.2307 72.9606 42.4921C72.6245 42.9775 72.2512 43.3882 71.9151 43.6869C71.6164 43.9483 71.2803 44.1723 70.9069 44.3964C70.4962 44.6204 70.1602 44.7324 69.8241 44.7324C69.264 44.6951 68.8533 44.4337 68.5919 43.9856C68.3305 43.5376 68.1438 43.0148 67.9945 42.4174C67.8451 41.8199 67.6584 41.2972 67.3971 40.8118C67.061 40.9238 66.7996 41.1478 66.6503 41.4092C66.5009 41.6706 66.3142 41.9693 66.2022 42.3054C66.1649 42.4174 66.0902 42.5667 66.0528 42.7161C66.0155 42.8281 65.9408 42.9775 65.9035 43.1268C65.7915 43.4629 65.6421 43.7989 65.4554 44.135C65.306 44.471 65.1194 44.6577 64.9327 44.6951C64.5219 44.6951 64.2232 44.471 64.1112 43.9483C63.9992 43.4255 63.9245 42.9028 63.8872 42.38C63.8872 42.2307 63.8872 42.0813 63.8498 41.9693C63.8125 41.5959 63.8125 41.2225 63.7751 40.8865C63.7751 39.9903 63.6631 39.2435 63.4391 38.5714C62.767 39.2809 62.2442 40.2144 61.8335 41.4092C61.7588 41.5586 61.6841 41.7453 61.6095 41.932C61.5348 42.1187 61.4601 42.3427 61.3854 42.6041C61.1987 43.2015 61.012 43.7616 60.7507 44.247C60.4893 44.7697 60.1532 45.0311 59.7425 45.0685C59.3318 44.9938 59.0331 44.6951 58.921 44.0976C58.809 43.5002 58.7343 42.8654 58.7343 42.2307C58.7343 42.156 58.697 42.0813 58.697 42.0066C58.697 41.8946 58.697 41.7453 58.6597 41.6332C58.6223 41.1105 58.6223 40.6251 58.6223 40.2144C58.6223 39.8036 58.7343 39.4676 58.8837 39.2435C59.2944 39.2435 59.5185 39.4302 59.5932 39.8036C59.6678 40.177 59.6678 40.5878 59.6305 41.0732C59.6305 41.3719 59.5932 41.7079 59.5932 41.9693C59.6305 42.6041 59.7052 43.1642 59.8172 43.5749C60.2652 42.9401 60.676 42.0813 61.012 40.9611C61.2361 40.289 61.4974 39.6543 61.7588 39.0568C62.0202 38.4594 62.3563 38.0113 62.767 37.7126C63.3644 37.3392 63.7751 37.4139 64.0739 37.974C64.3726 38.4968 64.5593 39.2062 64.6713 40.065C64.7833 40.9238 64.8206 41.7079 64.858 42.3427C64.858 42.4174 64.858 42.4921 64.8953 42.5294C65.1194 42.268 65.3434 41.8946 65.5674 41.4839Z" fill="#55BECF"/>
<path d="M59.7054 45.2178C59.22 45.1431 58.884 44.7698 58.7719 44.135C58.6599 43.5376 58.5852 42.9028 58.5852 42.2307C58.5852 42.1933 58.5479 42.1187 58.5479 42.0066C58.5479 41.8946 58.5479 41.7826 58.5106 41.6706C58.4732 41.1478 58.4732 40.6624 58.4732 40.2517C58.4732 39.8036 58.5852 39.4676 58.7719 39.2435L58.8093 39.2062H58.884C59.4814 39.2435 59.6681 39.5796 59.7054 39.841C59.7801 40.2144 59.7801 40.6624 59.7428 41.1478C59.7428 41.4466 59.7054 41.7453 59.7054 42.044C59.7428 42.5667 59.7801 42.9775 59.8548 43.3509C60.2282 42.7534 60.6016 41.9693 60.9003 40.9985C61.1243 40.3264 61.3857 39.6543 61.6471 39.0569C61.9458 38.4594 62.2818 37.974 62.6926 37.6753C63.0286 37.4513 63.3273 37.3766 63.5887 37.4513C63.8127 37.5259 63.9994 37.6753 64.1488 37.974C64.4475 38.4968 64.6342 39.2435 64.7462 40.1023C64.8582 40.9238 64.8956 41.6706 64.9329 42.268C65.1196 42.0066 65.269 41.7079 65.4183 41.4092C65.605 40.9611 65.8291 40.5878 66.1278 40.2517C66.4265 39.9157 66.7999 39.729 67.248 39.729C67.7707 39.7663 68.1441 39.9903 68.3681 40.4011C68.5922 40.8118 68.7415 41.2599 68.8909 41.7826C68.9656 42.156 69.0776 42.5294 69.1896 42.8655C69.3016 43.1642 69.4883 43.4255 69.675 43.6122C70.3098 43.3882 70.9072 43.0522 71.3926 42.6041C71.878 42.1187 72.3634 41.5959 72.7742 41.0358C72.9609 40.7745 73.1849 40.5131 73.3716 40.289C73.4089 40.2517 73.4463 40.177 73.4836 40.1023C73.633 39.9156 73.8197 39.729 73.969 39.5796C74.1557 39.3929 74.4171 39.3556 74.7158 39.4302H74.7531L74.7905 39.4676C74.9772 39.7663 74.9772 40.1023 74.7905 40.4011C74.6038 40.6998 74.3797 40.9611 74.081 41.2225C73.9317 41.3719 73.7823 41.5212 73.633 41.7079C73.4089 41.9693 73.1849 42.2307 72.9982 42.4921C72.6621 42.9775 72.2887 43.3882 71.9527 43.7243C71.654 43.9856 71.3179 44.2097 70.9072 44.4337C70.4965 44.6577 70.1231 44.7698 69.787 44.7698C69.1523 44.7324 68.7415 44.4337 68.4428 43.9483C68.1814 43.5002 67.9947 42.9401 67.8454 42.38C67.7334 41.8573 67.5467 41.3345 67.3226 40.9238C67.0613 41.0358 66.8746 41.2225 66.7252 41.4092C66.5758 41.6706 66.4265 41.9693 66.2771 42.3054C66.2398 42.4174 66.1651 42.5667 66.1278 42.7161C66.0904 42.8281 66.0158 42.9401 65.9784 43.1268C65.8664 43.4629 65.717 43.8363 65.5304 44.1723C65.3437 44.5457 65.157 44.7324 64.9329 44.8071C64.5595 44.8071 64.1488 44.6951 63.9621 43.9856C63.8501 43.4629 63.7754 42.9401 63.7381 42.38C63.7381 42.2307 63.7381 42.0813 63.7007 41.9693C63.6634 41.5959 63.626 41.2225 63.626 40.8865C63.626 40.1023 63.514 39.3929 63.3647 38.7955C62.7672 39.4676 62.2818 40.3637 61.9458 41.4466C61.8711 41.5959 61.7964 41.7826 61.7217 41.9693C61.6471 42.156 61.5724 42.38 61.4977 42.6414C61.311 43.2388 61.087 43.7989 60.8256 44.3217C60.5269 44.9191 60.1535 45.2178 59.7054 45.2178ZM58.9213 39.4302C58.8093 39.6169 58.7346 39.9156 58.6973 40.289C58.6973 40.6998 58.6973 41.1852 58.7346 41.7079C58.7346 41.82 58.7719 41.932 58.7719 42.0813C58.7719 42.156 58.7719 42.2307 58.8093 42.268C58.8093 42.9401 58.884 43.5376 58.996 44.135C59.108 44.6951 59.3694 44.9565 59.7428 45.0311C60.0788 45.0311 60.3775 44.7698 60.6389 44.2843C60.9003 43.7616 61.1243 43.2388 61.2737 42.6414C61.3484 42.38 61.423 42.1187 61.4977 41.932C61.5724 41.7453 61.6471 41.5586 61.7217 41.4092C62.0951 40.2144 62.6552 39.2435 63.3273 38.5341L63.4767 38.3847L63.5514 38.5714C63.7754 39.2435 63.8874 40.0277 63.8874 40.8865C63.8874 41.2225 63.9248 41.5586 63.9621 41.932C63.9621 42.044 63.9994 42.1933 63.9994 42.38C63.9994 42.9028 64.0741 43.4255 64.2235 43.911C64.3355 44.359 64.5595 44.5831 64.9329 44.5457C65.0823 44.5084 65.2316 44.3217 65.381 44.023C65.5304 43.6869 65.6797 43.3509 65.8291 43.0148C65.9037 42.8655 65.9411 42.7161 66.0158 42.6041C66.0904 42.4547 66.1278 42.3427 66.1651 42.1933C66.3145 41.82 66.4638 41.5212 66.6505 41.2599C66.8372 40.9612 67.0986 40.7745 67.4347 40.6251L67.5467 40.5878L67.584 40.6624C67.8454 41.1478 68.0321 41.6706 68.1814 42.268C68.3308 42.8281 68.5175 43.3509 68.7789 43.7989C69.0029 44.2097 69.3763 44.4337 69.9364 44.471C70.2351 44.471 70.5711 44.359 70.9445 44.135C71.3179 43.9109 71.654 43.6869 71.9527 43.4255C72.2887 43.1268 72.6248 42.7161 72.9609 42.2307C73.1849 41.9693 73.3716 41.7079 73.5956 41.4466C73.745 41.2972 73.8943 41.1105 74.0437 40.9611C74.3051 40.6998 74.5664 40.4384 74.7158 40.177C74.8652 39.953 74.8652 39.729 74.7531 39.5049C74.5664 39.4676 74.3797 39.5049 74.2677 39.6169C74.1184 39.7663 73.9317 39.9156 73.8197 40.1023C73.7823 40.177 73.7076 40.2517 73.6703 40.289C73.4836 40.5131 73.2969 40.7745 73.0729 40.9985C72.6621 41.5586 72.1767 42.1187 71.654 42.6041C71.1312 43.0895 70.5338 43.4629 69.8244 43.6869H69.7497L69.7123 43.6496C69.451 43.4255 69.2269 43.1268 69.1149 42.7534C68.9656 42.4174 68.8535 42.044 68.7789 41.6333C68.6668 41.1478 68.4801 40.6998 68.2935 40.3264C68.1068 39.9903 67.808 39.8036 67.36 39.7663C66.9866 39.7663 66.6505 39.9157 66.4265 40.2144C66.1651 40.5131 65.9411 40.8865 65.7544 41.2972C65.5304 41.7453 65.3063 42.1187 65.0449 42.4174L64.9329 42.5667L64.8582 42.38C64.8209 42.3054 64.8209 42.2307 64.8209 42.156C64.8209 41.5212 64.7462 40.7745 64.6342 39.8783C64.5222 39.0195 64.3355 38.3474 64.0368 37.8247C63.9248 37.6006 63.7754 37.4886 63.5887 37.4139C63.402 37.3766 63.1406 37.4139 62.8793 37.6006C62.5059 37.8993 62.1698 38.3101 61.9084 38.9075C61.6471 39.5049 61.3857 40.1397 61.1617 40.8118C60.8256 41.932 60.4149 42.8281 59.9668 43.4629L59.8174 43.6496L59.7428 43.4255C59.6308 43.0148 59.5561 42.4547 59.5187 41.82C59.5187 41.5212 59.5187 41.2225 59.5561 40.9238C59.5934 40.4384 59.5934 40.0277 59.5187 39.6916C59.4067 39.6169 59.2574 39.4676 58.9213 39.4302Z" fill="#55BECF"/>
<path d="M85.5816 39.841C85.6563 40.177 85.2829 40.6624 83.7893 42.2307C82.4077 43.6869 81.4743 44.2843 80.6528 44.2843C80.3914 44.2843 80.13 44.247 79.8687 44.0976C79.3833 43.8363 78.8605 43.0895 78.6365 42.3054C78.4871 41.9693 78.4124 41.5586 78.3751 41.4466C78.3378 41.2225 78.2257 41.3719 77.927 42.044C77.1056 44.0603 76.2468 45.1058 75.5747 45.1058C75.4253 45.1058 75.2759 45.0311 75.1266 44.9191C74.7905 44.6951 74.4545 44.0603 74.3798 43.3135C74.1184 41.8573 74.3051 38.7208 74.6412 38.198C74.8279 37.9367 75.2013 37.862 75.388 38.1234C75.5373 38.2727 75.5373 38.4594 75.388 39.2435C75.2386 40.3637 75.3133 43.0895 75.5373 43.5749L75.6867 43.8736L75.9107 43.6122C76.1721 43.3135 77.1429 41.2225 77.7403 39.7289C78.0017 39.1315 78.2631 38.6088 78.3004 38.4968C78.5245 38.2727 79.0099 38.3101 79.1592 38.4968C79.1966 38.5714 79.3086 39.2062 79.3459 39.8036C79.3833 40.4757 79.57 43.1268 80.6528 43.1268C80.8395 43.1268 80.9889 43.0895 81.1755 42.9775C81.661 42.7908 83.2292 41.2599 84.1253 40.2144C84.4614 39.8036 84.8348 39.4676 84.9095 39.4302C85.2082 39.3929 85.5069 39.5049 85.5816 39.841Z" fill="#55BECF"/>
<path d="M75.5746 45.2178C75.3879 45.2178 75.2012 45.1058 75.0892 45.0311C74.7158 44.8071 74.3797 44.0977 74.305 43.3135C74.0437 41.8573 74.193 38.6835 74.6037 38.1234C74.7158 37.9367 74.9398 37.8247 75.1265 37.8247C75.2758 37.8247 75.4252 37.8993 75.5372 38.0487C75.6866 38.1981 75.6866 38.4594 75.5372 39.2809C75.4252 40.4011 75.4626 43.0895 75.6493 43.5376L75.7239 43.6869L75.8359 43.5749C76.0973 43.2762 77.0308 41.2225 77.6656 39.6916C77.8896 39.1315 78.151 38.6461 78.2257 38.4594L78.263 38.4221C78.375 38.3101 78.5617 38.2354 78.7857 38.2354C79.0098 38.2354 79.1965 38.3101 79.3085 38.4221L79.3458 38.4594C79.4205 38.5714 79.4952 39.2809 79.5325 39.8036C79.7192 42.6041 80.354 43.0148 80.7274 43.0148C80.8767 43.0148 81.0261 42.9775 81.2128 42.9028C81.6609 42.7161 83.2291 41.2225 84.1253 40.177C84.3866 39.8783 84.8347 39.4302 84.9467 39.3556C85.3575 39.2435 85.6935 39.4302 85.8055 39.7663C85.9175 40.177 85.5441 40.6251 83.9759 42.268C82.5197 43.7616 81.5862 44.359 80.7274 44.359C80.4287 44.359 80.13 44.2843 79.9059 44.1723C79.3832 43.8736 78.8604 43.0895 78.6364 42.3054C78.5617 42.0813 78.487 41.82 78.4124 41.6333C78.4124 41.5959 78.375 41.5586 78.375 41.5212C78.3003 41.6706 78.1883 41.932 78.1136 42.044C77.1802 44.135 76.3214 45.2178 75.5746 45.2178ZM75.0892 38.086C74.9771 38.086 74.8278 38.1607 74.7531 38.2727C74.4544 38.7581 74.2304 41.82 74.4917 43.3135C74.5664 44.023 74.8651 44.6577 75.2012 44.8444C75.3505 44.9565 75.4999 44.9938 75.5746 44.9938C76.2093 44.9938 77.0308 43.911 77.8149 42.0067C78.1136 41.3345 78.1883 41.2225 78.3377 41.2225C78.4497 41.2225 78.487 41.3719 78.487 41.4092C78.487 41.4466 78.5244 41.5212 78.5244 41.5959C78.5617 41.7826 78.6364 42.044 78.7111 42.268C78.9351 43.0148 79.4205 43.7616 79.8686 43.9856C80.0926 44.0977 80.3167 44.135 80.6154 44.135C81.3995 44.135 82.2956 43.5376 83.6772 42.1187C85.0961 40.6251 85.5068 40.1024 85.4321 39.8036C85.3574 39.5796 85.1334 39.4676 84.872 39.5423C84.8347 39.5796 84.4986 39.8783 84.1253 40.289C83.3411 41.2599 81.6982 42.8655 81.1381 43.0895C80.9514 43.1642 80.7647 43.2389 80.578 43.2389C79.7939 43.2389 79.3085 42.0813 79.1591 39.8036C79.1218 39.1689 79.0471 38.6461 79.0098 38.5341C78.9351 38.4594 78.7857 38.4221 78.6737 38.4221C78.5244 38.4221 78.4123 38.4594 78.3377 38.5341C78.2257 38.7208 78.0016 39.2062 77.7776 39.729C77.1802 41.1479 76.2093 43.3135 75.9106 43.6496L75.5746 44.0603L75.3879 43.5749C75.1638 43.0522 75.1265 40.289 75.2385 39.1689C75.3505 38.4594 75.3505 38.2354 75.2759 38.1234C75.2385 38.086 75.1638 38.086 75.0892 38.086Z" fill="#55BECF"/>
<path d="M91.145 41.6706C90.7342 41.9693 90.0994 42.3427 89.6887 42.4921C89.1286 42.7534 88.9793 42.8281 89.0913 42.9775C89.278 43.4629 89.278 43.9483 89.0166 44.5084C88.6806 45.2552 88.0458 45.8526 87.187 46.3007C86.5896 46.562 86.3282 46.6367 85.6187 46.6367C84.9093 46.674 84.6853 46.6367 84.3119 46.45C83.7144 46.114 83.4531 45.7032 83.4531 45.1431C83.4531 44.3217 84.2372 43.5749 85.6934 43.0148C86.1415 42.8281 86.6642 42.6041 86.8136 42.5294L87.1123 42.38L85.9921 41.8573C84.7226 41.1852 84.4986 41.0358 84.5359 40.1397C84.5359 38.9448 85.3947 37.8993 86.1415 37.8993C86.3655 37.8993 86.5896 37.974 86.7389 38.198C87.0003 38.5341 86.963 38.9822 86.4775 39.9156C86.2908 40.3264 86.1415 40.6251 86.1415 40.6998C86.1415 40.7371 86.4775 40.9238 86.8883 41.0358C87.299 41.2225 87.7471 41.4839 87.9711 41.6333L88.3072 41.8946L89.3153 41.4092C90.4355 40.8491 91.1449 40.4011 91.9291 39.6916C92.2651 39.3929 92.5265 39.2435 92.7505 39.2435C92.9372 39.2435 93.0119 39.3182 93.0866 39.4676C93.3853 40.0277 92.8999 40.5504 91.145 41.6706ZM88.0084 43.2762C87.8591 43.2015 85.3947 44.247 84.984 44.5084C84.4986 44.9191 84.4239 45.2178 84.7226 45.4419C84.9093 45.5912 85.208 45.6659 85.5441 45.6659C86.4029 45.6659 87.5604 45.1058 87.8964 44.2843C88.0831 43.9483 88.1205 43.3509 88.0084 43.2762Z" fill="#55BECF"/>
<path d="M85.1706 46.7861C84.7599 46.7861 84.5359 46.7114 84.2371 46.5994C83.565 46.226 83.3037 45.7779 83.3037 45.1805C83.3037 44.2843 84.0878 43.5376 85.6187 42.9401C86.0668 42.7534 86.5895 42.5667 86.7389 42.4547L86.8136 42.4174L85.9174 42.0067C84.6852 41.3719 84.3492 41.1479 84.4238 40.177C84.4238 38.9075 85.3947 37.8247 86.1414 37.8247C86.4028 37.8247 86.6642 37.9367 86.8509 38.1607C87.1496 38.5714 87.0749 39.0569 86.5895 39.9903C86.5148 40.1397 86.4402 40.289 86.4028 40.4011C86.3655 40.5131 86.2908 40.6251 86.2535 40.6998C86.3655 40.7745 86.5895 40.8865 86.9256 40.9985C87.299 41.1852 87.8217 41.4466 88.0457 41.6333L88.3445 41.8573L89.2779 41.4092C90.4728 40.8118 91.1449 40.3637 91.8917 39.729C92.2651 39.3929 92.5265 39.2809 92.7878 39.2809C93.0119 39.2809 93.1239 39.3929 93.2359 39.5423C93.5346 40.1024 93.0492 40.6624 91.2196 41.7826C90.8088 42.1187 90.0994 42.4547 89.7633 42.6414C89.5767 42.7161 89.2406 42.9028 89.2033 42.9401L89.2406 42.9775C89.4273 43.5376 89.4273 44.023 89.1659 44.5831C88.7925 45.3672 88.1578 46.002 87.2616 46.45C86.6268 46.7114 86.3655 46.8234 85.6187 46.8234C85.432 46.7861 85.2826 46.7861 85.1706 46.7861ZM86.1041 38.0487C85.432 38.0487 84.6105 39.0569 84.6105 40.177C84.5732 40.9985 84.7599 41.1479 85.9921 41.7826L87.3736 42.4174L86.8509 42.6414C86.6642 42.7161 86.1414 42.9401 85.6934 43.1268C84.2745 43.6869 83.5277 44.3964 83.5277 45.1805C83.5277 45.7032 83.7517 46.0766 84.3492 46.4127C84.7226 46.562 84.9092 46.5994 85.5813 46.562C86.2535 46.562 86.5148 46.4874 87.1123 46.226C87.9337 45.8153 88.5312 45.2178 88.9046 44.471C89.1286 43.9483 89.1659 43.5002 88.9792 43.0148C88.9419 42.9775 88.9419 42.9028 88.9419 42.8655C88.9792 42.7161 89.1659 42.6414 89.6513 42.4174C90.0621 42.2307 90.6968 41.8946 91.0702 41.5959C92.7132 40.5504 93.2359 40.065 93.0119 39.6543C92.9372 39.5423 92.8625 39.5049 92.7505 39.5049C92.5638 39.5049 92.3024 39.6543 92.0037 39.9157C91.2569 40.5878 90.5475 41.0358 89.3526 41.6333L88.2698 42.156L87.859 41.8573C87.6723 41.7079 87.1869 41.4466 86.7762 41.2599C86.4775 41.1479 85.9547 40.9612 85.9547 40.8118C85.9547 40.7371 85.9921 40.6251 86.1414 40.3637C86.2161 40.2517 86.2535 40.1024 86.3281 39.953C86.8135 38.9822 86.8135 38.6461 86.5895 38.3474C86.5148 38.1607 86.3281 38.0487 86.1041 38.0487ZM85.544 45.7406C85.1706 45.7406 84.8346 45.6659 84.6479 45.5165C84.4985 45.4045 84.4238 45.2925 84.4238 45.1431C84.4238 44.9191 84.5732 44.6951 84.9092 44.4337C85.0586 44.3217 87.8217 43.0522 88.0457 43.2015C88.2698 43.3509 88.1578 43.9856 88.0084 44.3217C87.635 45.1805 86.4402 45.7406 85.544 45.7406ZM87.9337 43.3882C87.5977 43.4255 85.432 44.3217 85.0213 44.5831C84.6852 44.8444 84.6105 45.0311 84.6479 45.1058C84.6479 45.1805 84.6852 45.2552 84.7972 45.2925C84.9466 45.4045 85.2453 45.4792 85.5813 45.4792C86.4028 45.4792 87.4857 44.9565 87.8217 44.135C87.9711 43.911 87.9711 43.5002 87.9337 43.3882Z" fill="#55BECF"/>
<path d="M97.8284 42.4547C97.231 43.2762 95.8868 44.5831 95.4387 44.8071C94.9907 45.0685 94.1692 45.1431 93.7585 44.9938C92.6756 44.471 92.1902 42.9028 92.3396 40.177C92.4143 38.7581 92.5263 38.6088 93.0117 38.6088C93.4598 38.6088 93.4971 38.9075 93.3477 40.1397C93.1984 41.3719 93.3851 42.7534 93.7585 43.4629C93.9452 43.8736 94.0198 43.9109 94.3186 43.9483C95.0653 43.9856 96.3349 42.7534 97.6791 40.8118C98.3512 39.8783 98.6499 39.6169 98.9113 39.8783C99.2847 40.177 98.986 40.9238 97.8284 42.4547ZM93.161 36.4431C92.713 36.107 92.9743 35.3229 93.5718 35.3229C94.0572 35.3229 94.3559 36.1444 94.0572 36.4431C93.8705 36.6298 93.3851 36.6298 93.161 36.4431Z" fill="#55BECF"/>
<path d="M94.3187 45.1805C94.0947 45.1805 93.8706 45.1431 93.7213 45.0685C92.5638 44.5084 92.0783 42.9028 92.265 40.1397C92.3397 38.7955 92.4144 38.4594 93.0492 38.4594C93.1612 38.4594 93.3105 38.4594 93.4226 38.6088C93.6092 38.8328 93.6093 39.2435 93.4972 40.1397C93.3852 41.2972 93.5346 42.7161 93.8706 43.3882C94.02 43.7616 94.0947 43.7616 94.356 43.7989H94.3934C95.0655 43.7989 96.2977 42.6041 97.6046 40.6998C98.1646 39.953 98.426 39.6543 98.6874 39.6543C98.7994 39.6543 98.9114 39.6916 98.9861 39.7663C99.3968 40.1397 99.0981 40.8865 97.9033 42.4921C97.3058 43.3135 95.9616 44.6577 95.4389 44.8818C95.1775 45.1058 94.7294 45.1805 94.3187 45.1805ZM93.0118 38.7208C92.6758 38.7208 92.5638 38.7208 92.4517 40.177C92.265 42.7908 92.7504 44.359 93.7959 44.8818C94.1693 45.0311 94.9535 44.9565 95.3642 44.6951C95.8123 44.5084 97.1191 43.2015 97.7539 42.38C98.7994 40.9612 99.1728 40.2144 98.8741 39.953C98.7994 39.8783 98.7621 39.8783 98.7247 39.8783C98.5007 39.8783 98.1273 40.3637 97.7912 40.8491C96.3724 42.9401 95.1028 44.0976 94.3187 44.0603C93.9453 44.023 93.8333 43.9483 93.6466 43.5002C93.2732 42.7534 93.1238 41.3345 93.2359 40.1023C93.3105 39.3556 93.3479 38.9075 93.1985 38.7581C93.1985 38.7581 93.1612 38.7208 93.0118 38.7208ZM93.6092 36.7045C93.4226 36.7045 93.1985 36.6671 93.0865 36.5551C92.8625 36.3684 92.7504 36.0324 92.8625 35.7337C92.9745 35.4349 93.2359 35.2109 93.5346 35.2109C93.796 35.2109 94.0573 35.3976 94.1693 35.7337C94.3187 36.0697 94.2814 36.3684 94.0947 36.5551C94.02 36.6298 93.7959 36.7045 93.6092 36.7045ZM93.2359 36.3684C93.4226 36.5178 93.8333 36.5178 93.9453 36.3684C94.0573 36.2564 94.0573 36.0324 93.9826 35.8083C93.908 35.6216 93.7586 35.4349 93.5719 35.4349C93.3105 35.4349 93.1612 35.6216 93.1238 35.8083C93.0118 35.9577 93.0492 36.2191 93.2359 36.3684Z" fill="#55BECF"/>
<path d="M104.214 42.7161C102.198 44.6951 100.331 45.7032 99.173 45.3298C98.6503 45.1431 98.1649 44.7324 97.8661 44.0976C97.3434 43.0522 97.4554 41.4466 98.2022 39.9156C98.5383 39.0942 99.285 38.0487 100.293 38.0487C101.152 38.0487 101.824 39.0195 101.824 40.5131C101.824 41.0358 101.6 41.3345 101.264 41.3345C101.003 41.3345 100.928 41.1105 100.779 40.2517C100.704 39.6916 100.592 39.3929 100.48 39.2062L100.256 38.9822L99.9571 39.2062C99.6211 39.5049 99.0237 40.5131 98.837 41.2972C98.5382 42.5294 98.7623 43.8736 99.285 44.1723C100.069 44.5831 101.637 43.6869 103.579 41.82C104.102 41.2972 104.662 40.6251 104.849 40.3264C105.147 39.8783 105.334 39.6543 105.558 39.6543C105.633 39.6543 105.782 39.729 105.857 39.841C106.342 40.2144 105.819 41.1478 104.214 42.7161Z" fill="#55BECF"/>
<path d="M99.6955 45.5165C99.5088 45.5165 99.3221 45.4792 99.1728 45.4419C98.6127 45.2552 98.0899 44.7698 97.7912 44.1723C97.2311 43.0895 97.3805 41.4466 98.1273 39.8783C98.538 38.9448 99.3221 37.9367 100.33 37.9367C101.301 37.9367 101.973 38.9822 101.973 40.5131C101.973 41.1105 101.712 41.4466 101.301 41.4466C100.928 41.4466 100.853 41.1105 100.704 40.2517C100.629 39.6916 100.554 39.3929 100.405 39.2435L100.256 39.0942L100.032 39.2435C99.7329 39.5049 99.1728 40.4757 98.9487 41.2972C98.65 42.5294 98.9114 43.7989 99.3221 44.0603C100.032 44.4337 101.6 43.5376 103.467 41.7079C103.99 41.1852 104.55 40.5131 104.699 40.2517C104.998 39.8036 105.222 39.5423 105.483 39.5423C105.67 39.5423 105.819 39.729 105.857 39.7663C105.969 39.8783 106.043 40.0277 106.043 40.177C106.081 40.6998 105.483 41.5212 104.214 42.7908C102.496 44.5457 100.853 45.5165 99.6955 45.5165ZM100.33 38.1607C99.4341 38.1607 98.6874 39.0942 98.3513 39.9903C97.6045 41.4839 97.4925 43.0521 98.0153 44.0976C98.314 44.6577 98.762 45.1058 99.2475 45.2552C100.33 45.5912 102.16 44.6204 104.176 42.6414C105.371 41.4466 105.969 40.6251 105.931 40.177C105.931 40.065 105.894 39.9903 105.819 39.9156C105.707 39.8036 105.632 39.7663 105.595 39.7663C105.446 39.7663 105.296 39.953 104.998 40.3637C104.811 40.6998 104.176 41.3719 103.728 41.8573C101.749 43.7989 100.144 44.6577 99.3221 44.247C98.7247 43.9109 98.5007 42.4921 98.8367 41.2225C99.0608 40.4384 99.6208 39.3929 99.9942 39.0568L100.405 38.7581L100.704 39.0568C100.853 39.2435 100.965 39.5796 101.04 40.177C101.189 41.0732 101.264 41.1852 101.413 41.1852C101.712 41.1852 101.861 40.9238 101.861 40.4757C101.749 39.0942 101.152 38.1607 100.33 38.1607Z" fill="#55BECF"/>
<path d="M155.406 41.5212C154.846 42.268 153.688 43.4629 153.24 43.6496C152.83 43.8736 152.083 43.9483 151.747 43.7989C150.776 43.3135 150.328 41.8946 150.477 39.4676C150.552 38.198 150.627 38.0487 151.075 38.0487C151.485 38.0487 151.523 38.3101 151.373 39.4302C151.261 40.5504 151.411 41.7826 151.747 42.4174C151.896 42.7534 151.971 42.8281 152.269 42.8654C152.942 42.9028 154.099 41.7826 155.294 40.0277C155.891 39.2062 156.153 38.9448 156.414 39.2062C156.713 39.4676 156.451 40.1397 155.406 41.5212ZM151.187 36.107C150.776 35.8083 151.037 35.0989 151.56 35.0989C152.008 35.0989 152.269 35.8457 152.008 36.107C151.821 36.2564 151.373 36.2564 151.187 36.107Z" fill="#55BECF"/>
<path d="M152.232 43.9483C152.045 43.9483 151.859 43.911 151.709 43.8736C150.701 43.3882 150.253 41.8946 150.402 39.4676C150.477 38.2354 150.552 37.974 151.074 37.974C151.224 37.974 151.336 38.0114 151.373 38.086C151.523 38.2727 151.523 38.6461 151.448 39.4302C151.336 40.5131 151.485 41.7453 151.784 42.38C151.933 42.7161 152.008 42.7534 152.232 42.7908H152.269C152.904 42.7908 153.987 41.7453 155.219 39.9903C155.705 39.3182 155.966 39.0569 156.153 39.0569C156.227 39.0569 156.339 39.0942 156.414 39.1689C156.75 39.4676 156.489 40.1397 155.443 41.5959C154.92 42.3054 153.688 43.5376 153.24 43.7616C153.016 43.8363 152.605 43.9483 152.232 43.9483ZM151.074 38.086C150.701 38.086 150.626 38.1234 150.552 39.4302C150.402 41.82 150.813 43.2388 151.784 43.7243C152.12 43.8736 152.829 43.7989 153.24 43.5749C153.651 43.3882 154.808 42.2307 155.406 41.4466C156.377 40.1397 156.675 39.4676 156.414 39.2062C156.377 39.1689 156.302 39.1315 156.265 39.1315C156.041 39.1315 155.742 39.5796 155.406 40.0277C154.136 41.8573 153.053 42.9028 152.344 42.9028H152.307C152.008 42.8655 151.896 42.7908 151.747 42.4174C151.411 41.7826 151.261 40.4757 151.373 39.3929C151.448 38.6835 151.448 38.3101 151.336 38.1607C151.261 38.1234 151.186 38.086 151.074 38.086ZM151.597 36.2937C151.448 36.2937 151.261 36.2564 151.149 36.1444C150.962 35.995 150.888 35.6963 150.962 35.4349C151.037 35.1736 151.299 34.9869 151.523 34.9869C151.784 34.9869 151.971 35.2109 152.045 35.4349C152.12 35.659 152.157 35.9577 151.971 36.1444C151.933 36.2564 151.784 36.2937 151.597 36.2937ZM151.224 36.0697C151.411 36.2191 151.784 36.2191 151.933 36.0697C152.045 35.9577 152.045 35.7337 151.971 35.5096C151.896 35.3229 151.747 35.1362 151.56 35.1362C151.298 35.1362 151.149 35.3229 151.112 35.4723C151 35.6963 151.074 35.9204 151.224 36.0697Z" fill="#55BECF"/>
<path d="M163.77 39.0569C163.994 39.0569 164.069 39.2435 163.919 39.6543C163.621 40.4011 160.596 42.0813 159.215 42.268C158.766 42.3427 158.729 42.38 158.505 42.9028C158.206 43.6122 157.908 43.8736 157.534 44.0977C157.124 44.247 157.124 44.247 156.787 44.0977C156.339 43.911 155.929 43.3509 155.705 42.7908C155.593 42.3427 155.555 42.0067 155.555 40.8491C155.555 39.7663 155.593 37.4139 157.161 37.4139C157.758 37.4139 158.356 37.8247 158.729 38.6088C158.916 39.0195 158.916 39.1689 158.916 40.2144V41.4466L159.177 41.4092C160.036 41.2599 162.09 40.177 162.986 39.4302C163.322 39.1689 163.621 39.0569 163.77 39.0569ZM157.646 42.3054C157.572 42.3054 157.236 42.1934 156.974 42.044C156.675 41.8946 156.414 41.7453 156.377 41.7453C156.339 41.7453 156.526 42.5294 156.638 42.7161C156.787 43.0521 157.049 43.2762 157.198 43.2388C157.273 43.2388 157.422 43.0522 157.572 42.8281C157.833 42.38 157.833 42.3054 157.646 42.3054ZM158.057 40.1397C158.02 39.2809 157.982 39.0195 157.833 38.8328C157.609 38.4968 157.385 38.3474 157.124 38.4221C156.451 38.5714 156.377 40.1397 157.011 40.9238C157.124 40.9985 157.385 41.1479 157.572 41.2972C158.057 41.4839 158.094 41.3719 158.057 40.1397Z" fill="#55BECF"/>
<path d="M157.161 44.247C157.049 44.247 156.974 44.2097 156.788 44.135C156.339 43.9483 155.891 43.3882 155.705 42.7908C155.593 42.3427 155.555 42.0066 155.555 40.8491C155.555 39.8783 155.555 37.3392 157.236 37.3392C157.87 37.3392 158.468 37.7873 158.879 38.5714C159.065 38.9822 159.065 39.1315 159.065 40.2144V41.3719L159.252 41.3345C160.111 41.1852 162.127 40.1397 163.061 39.3929C163.322 39.1689 163.621 39.0195 163.807 39.0195C163.957 39.0195 164.031 39.0942 164.069 39.1315C164.143 39.2435 164.143 39.4302 164.031 39.6916C163.695 40.4757 160.633 42.1933 159.289 42.3427C158.879 42.4174 158.841 42.4547 158.617 42.9401C158.281 43.6869 157.982 43.9483 157.609 44.135C157.348 44.2097 157.236 44.247 157.161 44.247ZM157.198 37.4513C155.63 37.4513 155.63 39.9156 155.63 40.8118C155.63 41.9693 155.667 42.3054 155.779 42.7161C155.966 43.2762 156.414 43.7989 156.825 43.9856C157.161 44.135 157.161 44.135 157.534 43.9856C157.908 43.7989 158.169 43.5749 158.468 42.8281C158.729 42.3054 158.767 42.2307 159.215 42.156C160.633 42.0066 163.583 40.289 163.845 39.5796C163.957 39.2809 163.919 39.1689 163.882 39.1315C163.845 39.0942 163.807 39.0568 163.733 39.0568C163.583 39.0568 163.322 39.1689 163.061 39.3929C162.127 40.177 160.073 41.2225 159.215 41.3719L158.879 41.4092V40.1023C158.879 39.0195 158.879 38.9075 158.692 38.4968C158.356 37.8993 157.796 37.4513 157.198 37.4513ZM157.161 43.2762C156.974 43.2762 156.75 43.0521 156.601 42.7161C156.526 42.5667 156.265 41.7826 156.339 41.6706V41.6332H156.377C156.414 41.6332 156.451 41.6706 156.601 41.7453C156.713 41.8199 156.825 41.8946 157.012 41.9693C157.273 42.1187 157.609 42.2307 157.646 42.2307C157.684 42.2307 157.758 42.2307 157.796 42.3054C157.833 42.38 157.796 42.4921 157.609 42.8281C157.534 42.9401 157.348 43.2388 157.198 43.2388C157.198 43.2762 157.198 43.2762 157.161 43.2762ZM156.451 41.8199C156.489 42.044 156.638 42.5294 156.713 42.6787C156.862 43.0148 157.086 43.2015 157.198 43.1642C157.236 43.1642 157.385 43.0148 157.497 42.7908C157.609 42.5667 157.684 42.4174 157.684 42.38C157.684 42.38 157.684 42.38 157.646 42.38C157.534 42.38 157.198 42.2307 156.937 42.0813C156.788 42.0066 156.638 41.932 156.526 41.8573C156.526 41.8573 156.489 41.8199 156.451 41.8199ZM157.833 41.4092C157.758 41.4092 157.646 41.3719 157.497 41.3345C157.348 41.2599 157.161 41.1105 156.937 40.9611C156.489 40.4011 156.414 39.5049 156.601 38.9448C156.713 38.6461 156.9 38.4221 157.124 38.3847C157.422 38.3101 157.646 38.4221 157.908 38.7955C158.094 39.0195 158.132 39.2809 158.169 40.1397C158.206 40.9611 158.206 41.2972 158.02 41.4092C157.945 41.4092 157.908 41.4092 157.833 41.4092ZM157.049 40.8491C157.273 40.9985 157.46 41.1105 157.609 41.1852C157.758 41.2599 157.87 41.2972 157.945 41.2599C158.057 41.1852 158.057 40.7744 158.02 40.1023C157.982 39.2435 157.945 39.0195 157.796 38.8328C157.572 38.4968 157.385 38.3847 157.161 38.4594C156.974 38.4968 156.825 38.6835 156.75 38.9448C156.526 39.5049 156.601 40.3637 157.049 40.8491Z" fill="#55BECF"/>
</svg>
